<svg width="1440" height="988" viewBox="0 0 1440 988" fill="none" xmlns="http://www.w3.org/2000/svg">
<path d="M994.089 139.381C781.287 57.4879 774.589 145.902 611.089 159.881C447.589 173.86 313.477 21.2363 148.089 2.69019C-17.299 -15.8559 -62.8892 66.8585 -142.012 86.6391C-142.012 174.572 -142.012 458.842 -142.012 458.842L1511.59 458.842L1511.59 153.471C1511.59 153.471 1207.28 221.424 994.089 139.381Z" fill="url(#paint0_linear_101_4477)"/>
<path d="M939.999 140.564C727.198 58.671 696.86 55.6611 596.999 92.5639C497.139 129.467 439.527 127.013 274.139 108.467C108.751 89.9208 21.1223 113.545 -58.0002 133.325C-58.0002 221.258 -57.9998 674.911 -57.9998 674.911L1464.1 674.911L1460 112.567C1460 112.567 1153.19 222.607 939.999 140.564Z" fill="url(#paint1_linear_101_4477)"/>
<g filter="url(#filter0_f_101_4477)">
<path d="M1152 474.911C939.198 393.018 824.975 333.982 654.475 355.587C483.975 377.191 448.248 235.752 282.86 217.206C117.472 198.66 48.9128 219.029 -30.2097 238.81C-30.2097 325.981 -32.3269 689.912 -32.3269 689.912L1513.86 689.912V524.911C1513.86 524.911 1365.19 556.954 1152 474.911Z" fill="url(#paint2_linear_101_4477)"/>
</g>
<g filter="url(#filter1_f_101_4477)">
<path d="M1054 510.911C912 456.265 840.5 401.572 677 415.551C513.5 429.531 433.489 350.148 268.101 331.602C102.713 313.056 57.1223 395.771 -22.0002 415.551C-22.0002 503.484 -22.0002 837.911 -22.0002 837.911L1631.6 837.911L1631.6 543.911C1631.6 543.911 1267.19 592.954 1054 510.911Z" fill="url(#paint3_linear_101_4477)"/>
</g>
<g style="mix-blend-mode:hard-light">
<path d="M-64.5413 335.804C11.814 333.521 62.276 286.197 216.449 320.066C370.623 353.935 438.825 415.744 594.168 428.379C749.512 441.015 811.931 485.769 940.792 539.829C1134.26 620.993 1482.11 637.616 1482.11 637.616" stroke="url(#paint4_linear_101_4477)" stroke-width="0.7"/>
<path d="M-82.5348 360.689C-5.65097 356.278 44.6901 304.537 200.326 336.634C355.961 368.73 425.29 432.831 581.886 442.27C738.481 451.708 801.812 497.783 932.158 552.055C1127.85 633.535 1478.39 642.232 1478.39 642.232" stroke="url(#paint5_linear_101_4477)" stroke-width="0.8"/>
<path d="M-99.9592 385.978C-22.5981 379.418 27.4832 323.252 184.565 353.535C341.647 383.819 412.204 450.19 569.988 456.392C727.772 462.593 792.077 509.971 923.956 564.417C1121.95 646.158 1475 646.842 1475 646.842" stroke="url(#paint6_linear_101_4477)" stroke-width="0.9"/>
<path d="M-116.804 411.658C-39.0175 402.933 10.6647 342.335 169.177 370.765C327.69 399.195 399.575 467.812 558.481 470.738C717.387 473.665 782.733 522.324 916.19 576.906C1116.55 658.853 1471.94 651.439 1471.94 651.439" stroke="url(#paint7_linear_101_4477)"/>
<path d="M-133.06 437.72C-54.9 426.812 -5.75655 361.781 154.169 388.316C314.095 414.851 387.409 485.686 547.37 485.301C707.332 484.915 773.782 534.834 908.862 589.513C1111.66 671.606 1469.22 656.013 1469.22 656.013" stroke="url(#paint8_linear_101_4477)" stroke-width="1.1"/>
<path d="M-148.717 464.152C-70.2361 451.046 -21.7712 381.583 139.55 406.182C300.871 430.781 375.712 503.805 536.662 500.071C697.611 496.337 765.23 547.491 901.976 602.227C1107.28 684.405 1466.82 660.556 1466.82 660.556" stroke="url(#paint9_linear_101_4477)" stroke-width="1.2"/>
<path d="M-163.765 490.942C-85.017 475.624 -37.3705 401.735 125.327 424.357C288.024 446.979 364.491 522.159 526.36 515.042C688.23 507.926 757.079 560.288 895.536 615.038C1103.41 697.237 1464.75 665.059 1464.75 665.059" stroke="url(#paint10_linear_101_4477)" stroke-width="1.3"/>
<path d="M-178.196 518.079C-99.2336 500.536 -52.5453 422.228 111.508 442.832C275.561 463.437 353.752 540.737 516.471 530.205C679.191 519.673 749.335 573.216 889.543 627.936C1100.04 710.091 1463.01 669.513 1463.01 669.513" stroke="url(#paint11_linear_101_4477)" stroke-width="1.4"/>
<path d="M-192 545.551C-112.877 525.771 -67.2873 443.056 98.1008 461.602C263.489 480.149 343.5 559.531 507 545.551C670.5 531.572 742 586.265 884 640.911C1097.19 722.954 1461.6 673.911 1461.6 673.911" stroke="url(#paint12_linear_101_4477)" stroke-width="1.5"/>
</g>
<defs>
<filter id="filter0_f_101_4477" x="-182.327" y="59.9121" width="1846.19" height="780" filterUnits="userSpaceOnUse" color-interpolation-filters="sRGB">
<feFlood flood-opacity="0" result="BackgroundImageFix"/>
<feBlend mode="normal" in="SourceGraphic" in2="BackgroundImageFix" result="shape"/>
<feGaussianBlur stdDeviation="75" result="effect1_foregroundBlur_101_4477"/>
</filter>
<filter id="filter1_f_101_4477" x="-172" y="178.912" width="1953.6" height="808.999" filterUnits="userSpaceOnUse" color-interpolation-filters="sRGB">
<feFlood flood-opacity="0" result="BackgroundImageFix"/>
<feBlend mode="normal" in="SourceGraphic" in2="BackgroundImageFix" result="shape"/>
<feGaussianBlur stdDeviation="75" result="effect1_foregroundBlur_101_4477"/>
</filter>
<linearGradient id="paint0_linear_101_4477" x1="1399.44" y1="-187.85" x2="1399.44" y2="497.186" gradientUnits="userSpaceOnUse">
<stop stop-color="#4B20DD"/>
<stop offset="0.484375" stop-color="#DB5356"/>
<stop offset="1" stop-color="#FF5F8F" stop-opacity="0"/>
</linearGradient>
<linearGradient id="paint1_linear_101_4477" x1="761.889" y1="18.6193" x2="761.889" y2="711.073" gradientUnits="userSpaceOnUse">
<stop stop-color="#000AFF" stop-opacity="0.25"/>
<stop offset="0.45568" stop-color="#9BAACD"/>
<stop offset="1" stop-color="#F2F6FF"/>
</linearGradient>
<linearGradient id="paint2_linear_101_4477" x1="740.766" y1="209.912" x2="804.48" y2="761.065" gradientUnits="userSpaceOnUse">
<stop stop-color="#E5A7E0"/>
<stop offset="1" stop-color="#491EB8"/>
</linearGradient>
<linearGradient id="paint3_linear_101_4477" x1="808.836" y1="343.883" x2="808.836" y2="837.911" gradientUnits="userSpaceOnUse">
<stop stop-color="#C7CEEB"/>
<stop offset="1" stop-color="#F2F6FF"/>
</linearGradient>
<linearGradient id="paint4_linear_101_4477" x1="26.0041" y1="327.911" x2="25.4729" y2="627.556" gradientUnits="userSpaceOnUse">
<stop stop-color="#FC594F" stop-opacity="0"/>
<stop offset="0.0548279" stop-color="#FC594F"/>
<stop offset="0.848928" stop-color="#5522B1"/>
<stop offset="1" stop-color="#5E4A92" stop-opacity="0"/>
</linearGradient>
<linearGradient id="paint5_linear_101_4477" x1="63.0042" y1="339.911" x2="65.5802" y2="647.597" gradientUnits="userSpaceOnUse">
<stop stop-color="#FC594F" stop-opacity="0"/>
<stop offset="0.0881905" stop-color="#FC594F"/>
<stop offset="0.891583" stop-color="#5522B1"/>
<stop offset="1" stop-color="#5E4A92" stop-opacity="0"/>
</linearGradient>
<linearGradient id="paint6_linear_101_4477" x1="70.0042" y1="378.911" x2="83.7536" y2="698.802" gradientUnits="userSpaceOnUse">
<stop stop-color="#FC594F" stop-opacity="0"/>
<stop offset="0.0582288" stop-color="#FC594F"/>
<stop offset="0.891583" stop-color="#5522B1"/>
<stop offset="1" stop-color="#5E4A92" stop-opacity="0"/>
</linearGradient>
<linearGradient id="paint7_linear_101_4477" x1="98.2302" y1="404.832" x2="119.564" y2="731.689" gradientUnits="userSpaceOnUse">
<stop stop-color="#FC594F" stop-opacity="0"/>
<stop offset="0.135417" stop-color="#FC594F"/>
<stop offset="0.891583" stop-color="#5522B1"/>
<stop offset="1" stop-color="#5E4A92" stop-opacity="0"/>
</linearGradient>
<linearGradient id="paint8_linear_101_4477" x1="83.2507" y1="425.816" x2="114.294" y2="769.813" gradientUnits="userSpaceOnUse">
<stop stop-color="#FC594F" stop-opacity="0"/>
<stop offset="0.135417" stop-color="#FC594F"/>
<stop offset="0.891583" stop-color="#5522B1"/>
<stop offset="1" stop-color="#5E4A92" stop-opacity="0"/>
</linearGradient>
<linearGradient id="paint9_linear_101_4477" x1="68.758" y1="447.124" x2="110.329" y2="807.919" gradientUnits="userSpaceOnUse">
<stop stop-color="#FC594F" stop-opacity="0"/>
<stop offset="0.135417" stop-color="#FC594F"/>
<stop offset="0.891583" stop-color="#5522B1"/>
<stop offset="1" stop-color="#5E4A92" stop-opacity="0"/>
</linearGradient>
<linearGradient id="paint10_linear_101_4477" x1="54.7602" y1="468.746" x2="107.659" y2="845.968" gradientUnits="userSpaceOnUse">
<stop stop-color="#FC594F" stop-opacity="0"/>
<stop offset="0.135417" stop-color="#FC594F"/>
<stop offset="0.891583" stop-color="#5522B1"/>
<stop offset="1" stop-color="#5E4A92" stop-opacity="0"/>
</linearGradient>
<linearGradient id="paint11_linear_101_4477" x1="41.2655" y1="490.674" x2="106.273" y2="883.923" gradientUnits="userSpaceOnUse">
<stop stop-color="#FC594F" stop-opacity="0"/>
<stop offset="0.135417" stop-color="#FC594F"/>
<stop offset="0.891583" stop-color="#5522B1"/>
<stop offset="1" stop-color="#5E4A92" stop-opacity="0"/>
</linearGradient>
<linearGradient id="paint12_linear_101_4477" x1="28.2818" y1="512.897" x2="106.161" y2="921.747" gradientUnits="userSpaceOnUse">
<stop stop-color="#FC594F" stop-opacity="0"/>
<stop offset="0.135417" stop-color="#FC594F"/>
<stop offset="0.891583" stop-color="#5522B1"/>
<stop offset="1" stop-color="#5E4A92" stop-opacity="0"/>
</linearGradient>
</defs>
</svg>
