<?xml version="1.0" encoding="UTF-8" standalone="no"?>
<svg
   xmlns:dc="http://purl.org/dc/elements/1.1/"
   xmlns:cc="http://creativecommons.org/ns#"
   xmlns:rdf="http://www.w3.org/1999/02/22-rdf-syntax-ns#"
   xmlns:svg="http://www.w3.org/2000/svg"
   xmlns="http://www.w3.org/2000/svg"
   viewBox="0 0 4000 2666.6667"
   height="2666.6667"
   width="4000"
   xml:space="preserve"
   id="svg2"
   version="1.1"><metadata
     id="metadata8"><rdf:RDF><cc:Work
         rdf:about=""><dc:format>image/svg+xml</dc:format><dc:type
           rdf:resource="http://purl.org/dc/dcmitype/StillImage" /></cc:Work></rdf:RDF></metadata><defs
     id="defs6" /><g
     transform="matrix(1.3333333,0,0,-1.3333333,0,2666.6667)"
     id="g10"><g
       transform="scale(0.1)"
       id="g12"><g
         transform="scale(1.84049)"
         id="g14"><path
           id="path16"
           style="fill:#ffffff;fill-opacity:1;fill-rule:nonzero;stroke:none"
           d="M 16300,0 H 0 V 10866.7 H 16300 V 0" /></g><g
         transform="scale(1.82899)"
         id="g18"><path
           id="path20"
           style="fill:#ebf3fa;fill-opacity:1;fill-rule:nonzero;stroke:none"
           d="m 14991,1046.37 c -850.7,0 -13243.13,-3.01 -13250.29,18.76 l -1.22,2.78 c 0,0 -1.21,2.68 -1.21,3.99 -4.74,10.94 -2573.918,2154.09 387.12,4283.9 1158.57,833.33 29.76,1545.47 951.05,2473.18 1058.8,1066.09 2776.51,641.01 3953.89,1124.44 208.04,85.33 416.73,222.68 625.7,433.46 117.66,118.51 246.53,222.17 384.53,311.66 21.16,13.78 42.54,27.23 64.13,40.3 82.67,50.04 168.35,95.27 256.59,135.94 59.27,27.3 119.63,52.54 181.2,75.73 h 0.05 c 97.59,36.83 197.87,68.59 300.27,95.49 145.44,38.1 295.2,66.5 447.9,85.7 66.6,8.5 133.79,15.1 201.43,20.1 1315.56,96.5 2795.96,-446.52 3559.96,-1240.28 153.8,-159.84 853.3,-986.87 302,-2123.62 -348.2,-717.72 1110.2,-1403.17 1628.4,-2222.75 1317.5,-2083.72 20.5,-3491.66 8.5,-3518.78" /></g><path
         id="path22"
         style="fill:#dfebfd;fill-opacity:1;fill-rule:nonzero;stroke:none"
         d="m 11760.4,13375.4 c 0,0 675.1,-1290.7 427.1,-1401.5 -247.9,-110.8 -648.5,1492.5 -648.5,1492.5 0,0 -1459.3,224.4 -1943.95,23.8 0,0 1196.85,-1096.5 929.35,-1142.9 -267.6,-46.3 -1566.08,1036.9 -1566.08,1036.9 0,0 -1378.56,-156 -1352.32,-993.1 26.23,-837.2 482.38,-1120.7 690.43,-1110.1 208.05,10.6 1443.61,404.7 1460.48,233.8 16.88,-170.9 -742.28,-684 -1253.66,-681.4 0,0 903.39,-1115.5 1560.35,-844.9 657,270.7 738.8,753.4 1147.8,913.2 409.1,159.9 749.5,140.4 574.5,-36.2 -175.1,-176.6 -907,-316.8 -1157.7,-707.5 -250.7,-390.7 -470.5,-651.4 197,-588.8 667.6,62.6 1770.8,486.8 1849,1038.9 3.4,24 6.7,47 9.8,69 -1.5,-44.1 -9.8,-69 -9.8,-69 136.5,-32.3 408.6,-301.8 604.6,-512.4 30,-36.9 75,-86.8 139.5,-153.6 v 0 c 27.3,-30.8 49.3,-56.1 64.6,-73.7 390.3,-486.7 564.6,-1479.3 564.6,-1479.3 l 145.2,4.8 c 3.6,1055.1 -759.6,1688.4 -759.6,1688.4 -529.8,525.1 -680.6,1077.8 -680.6,1077.8 0,0 1002,1044.8 158.3,1791.3 0,0 -622.9,426.4 -1150.4,424" /><g
         transform="scale(1.37648)"
         id="g24"><path
           id="path26"
           style="fill:#dfebfd;fill-opacity:1;fill-rule:nonzero;stroke:none"
           d="m 13262.8,11824.8 c 0,0 -490.4,-937.8 -310.3,-1018.3 180.1,-80.4 471.2,1084.4 471.2,1084.4 0,0 1060.1,162.9 1412.2,17.2 0,0 -869.5,-796.6 -675.1,-830.3 194.4,-33.6 1137.7,753.3 1137.7,753.3 0,0 1001.5,-113.3 982.5,-721.5 -19.1,-608.2 -350.5,-814.1 -501.7,-806.4 -151.1,7.6 -1048.7,294 -1060.9,169.8 -12.3,-124.1 539.2,-496.88 910.7,-494.99 0,0 -656.3,-810.46 -1133.6,-613.84 -477.3,196.63 -536.7,547.3 -833.9,663.43 -297.1,116.2 -544.5,102 -417.3,-26.3 127.2,-128.29 658.9,-230.15 841.1,-514 182,-283.86 341.8,-473.23 -143.2,-427.76 -485,45.48 -1286.4,353.68 -1343.3,754.73 -2.5,17.48 -4.8,34.16 -7.1,50.15 1.1,-32.02 7.1,-50.15 7.1,-50.15 -99.2,-23.46 -296.8,-219.21 -439.2,-372.23 -21.8,-26.78 -54.5,-63.08 -101.3,-111.59 0,-0.01 0,-0.01 0,-0.01 -19.9,-22.35 -35.8,-40.71 -47,-53.54 -283.6,-353.54 -410.2,-1074.71 -410.2,-1074.71 l -105.5,3.53 c -2.5,766.49 551.9,1226.56 551.9,1226.56 384.9,381.54 494.5,783.02 494.5,783.02 0,0 -728,759.1 -115,1301.4 0,0 452.5,309.7 835.7,308.1" /></g><path
         id="path28"
         style="fill:#dfebfd;fill-opacity:1;fill-rule:nonzero;stroke:none"
         d="m 13163.3,13042.4 c 0,0 -171.1,2012.7 -1687.4,2455.5 0,0 -295.7,81.6 -445.1,-235.2 -149.3,-316.8 449.1,-407.8 799.5,-596 350.5,-188.1 1129.7,-881.3 1333,-1624.3" /><path
         id="path30"
         style="fill:#dfebfd;fill-opacity:1;fill-rule:nonzero;stroke:none"
         d="m 13181.4,13249 c 0,0 -1055.6,1214.9 -1868.7,1060.4 -813.1,-154.5 -571.2,-544.1 -326.4,-507.9 244.7,36.2 721.1,200.8 1164.9,-5.8 443.8,-206.6 1030.2,-546.7 1030.2,-546.7" /><g
         transform="scale(1.22203)"
         id="g32"><path
           id="path34"
           style="fill:#f77d48;fill-opacity:1;fill-rule:nonzero;stroke:none"
           d="m 16300,11780.3 v -137 h -6040.1 v 137 c 0,230.3 250.6,417 559.9,417 h 4920.4 c 309.2,0 559.8,-186.7 559.8,-417" /></g><g
         transform="scale(1.22203)"
         id="g36"><path
           id="path38"
           style="fill:#c2cfff;fill-opacity:1;fill-rule:nonzero;stroke:none"
           d="M 16300,11643.3 V 2235.71 c 0,-315.3 -250.6,-570.78 -559.8,-570.78 h -4920.4 c -309.3,0 -559.9,255.48 -559.9,570.78 V 11643.3 H 16300" /></g><g
         transform="scale(1.22731)"
         id="g40"><path
           id="path42"
           style="fill:#f77d48;fill-opacity:1;fill-rule:nonzero;stroke:none"
           d="m 10773.3,12074.9 c -268.9,0 -487.6,-218.7 -487.6,-487.5 V 2215.17 c 0,-268.79 218.7,-487.48 487.6,-487.48 h 4899.2 c 268.8,0 487.5,218.69 487.5,487.48 v 9372.23 c 0,268.8 -218.7,487.5 -487.5,487.5 z M 15672.5,1587.78 h -4899.2 c -346.1,0 -627.5,281.44 -627.5,627.39 v 9372.23 c 0,346 281.4,627.5 627.5,627.5 h 4899.2 c 346,0 627.5,-281.5 627.5,-627.5 V 2215.17 c 0,-345.95 -281.5,-627.39 -627.5,-627.39" /></g><g
         transform="scale(1.22283)"
         id="g44"><path
           id="path46"
           style="fill:#f77d48;fill-opacity:1;fill-rule:nonzero;stroke:none"
           d="m 15923.1,1698.35 h -5207.9 c -244,0 -441.7,197.74 -441.7,441.6 v 280.98 H 16300 v -345.59 c 0,-208.2 -168.8,-376.99 -376.9,-376.99" /></g><path
         id="path48"
         style="fill:#ffb27d;fill-opacity:1;fill-rule:nonzero;stroke:none"
         d="m 6864.09,5421.1 c 82.23,-465.4 142.55,-814.4 142.55,-814.4 -153.87,-631 77.53,-1440.2 268.22,-1949.4 43.59,-116.3 85,-217 119.31,-296.4 0,0 0.12,-0.2 0.24,-0.6 0.12,-0.1 0.24,-0.3 0.37,-0.7 0.23,-0.6 0.47,-1.3 0.84,-2.1 l 0.11,-0.1 c 0.85,-2.3 1.93,-4.5 2.9,-6.8 0,-0.3 0.12,-0.5 0.24,-0.8 50.08,-115.3 83.55,-182.3 83.55,-182.3 l 281.11,-12.7 c 0,0 -21.55,121 -45.51,325.1 -0.12,0.8 -0.24,1.4 -0.24,2 -7.71,65.9 -15.65,140.3 -23.23,222.1 -42.74,463.2 -72.48,1161.2 27.44,1864.2 244.04,1716.6 -78.37,2866.9 -78.37,2866.9 L 6611.15,7102 l -48.16,-15.4 c 91.86,-486.4 209.85,-1147.9 301.1,-1665.5" /><path
         id="path50"
         style="fill:#f4a671;fill-opacity:1;fill-rule:nonzero;stroke:none"
         d="m 6667.61,6537.6 c 91.76,-486.4 105.26,-599 196.5,-1116.5 566.52,988.9 483.21,1247.2 483.21,1247.2 l -679.71,-130.7" /><path
         id="path52"
         style="fill:#ffb27d;fill-opacity:1;fill-rule:nonzero;stroke:none"
         d="m 4889.45,2491.4 c 0.6,-18.3 1.44,-35.9 2.16,-52.8 8.19,-165.8 22.28,-266.9 22.28,-266.9 l 271.11,94.1 c 0,0 12.77,39.1 35.28,106.6 9.15,27.4 19.99,59.6 32.15,95.8 0.24,0.5 0.35,0.7 0.35,0.7 22.16,65.6 49.12,144.5 79.71,231.9 184.56,529.1 498.65,1376.2 681.52,1571.1 523.1,557.4 1293.12,2988.3 1293.12,2988.3 L 6266.71,7597.8 C 6112.37,7448.3 5987.05,7168.3 5886.04,6838.7 5631.18,6007.1 5532.21,4859.3 5518.85,4693.1 v -0.5 c -0.96,-12.7 -7.82,-23.8 -16.5,-33.4 -486.85,-541.8 -600.98,-1330.9 -614.71,-1874.4 -2.64,-108.9 -1.44,-208.1 1.81,-293.4" /><path
         id="path54"
         style="fill:#f77d48;fill-opacity:1;fill-rule:nonzero;stroke:none"
         d="m 6906.26,6449.9 180.65,22.2 c 87.31,29 172.63,48.7 251.93,62 255.76,42.8 450,18 450,18 -78.42,838.8 -192.06,1106.3 -192.06,1106.3 l -377.33,-660.5 -313.19,-548" /><path
         id="path56"
         style="fill:#dd5f33;fill-opacity:1;fill-rule:nonzero;stroke:none"
         d="m 6906.26,6449.9 180.65,22.2 c 87.31,29 172.63,48.7 251.93,62 11.41,161 -53.42,333.6 -119.39,463.8 l -313.19,-548" /><path
         id="path58"
         style="fill:#f77d48;fill-opacity:1;fill-rule:nonzero;stroke:none"
         d="m 7596.77,7658.4 c 0,0 -249.45,-188.4 -502.17,-171 -252.71,17.4 -990.52,185.9 -990.52,185.9 0,0 -136.69,-198.5 -232.38,-592.5 -98.76,-406.7 -98.76,-708.8 -98.76,-708.8 0,0 865.62,113.3 1214.19,-69.7 l 609.64,1356.1" /><path
         id="path60"
         style="fill:#ffb27d;fill-opacity:1;fill-rule:nonzero;stroke:none"
         d="m 7418.25,1898 c 102.33,-1.4 343.11,26 439.43,0 l 387.29,-0.1 c 90.29,55.4 126.65,119.7 -112.44,149.2 -345.28,42.7 -407.89,389.2 -414.51,432.8 -0.12,0.8 -0.24,1.4 -0.24,2 -0.24,1.7 -0.36,2.5 -0.36,2.5 l -323.25,-123.5 c 0,0 0.12,-0.2 0.24,-0.6 0.12,-0.1 0.24,-0.3 0.37,-0.7 0.23,-0.5 0.6,-1.2 0.84,-2.1 l 0.11,-0.1 c 0.73,-1.7 1.69,-3.9 2.9,-6.8 0,-0.3 0.12,-0.5 0.24,-0.8 11.32,-29.8 36.96,-116 1.32,-218.5 -30.58,-88 -84.27,-231.8 18.06,-233.3" /><path
         id="path62"
         style="fill:#ffb27d;fill-opacity:1;fill-rule:nonzero;stroke:none"
         d="m 4878.97,1898 c 102.34,-1.4 343.12,26 439.43,0 l 387.29,-0.1 c 90.3,55.4 124.73,107.1 -112.32,149.2 -349.01,61.8 -388.5,221.1 -373.09,325.3 7.59,52.1 28.89,90.4 32.15,95.8 0.24,0.5 0.35,0.7 0.35,0.7 l -363.33,22.5 c 0,0 1.44,-20.6 2.16,-52.8 1.93,-76.2 0.48,-217.8 -30.69,-307.3 -30.58,-88 -84.27,-231.8 18.05,-233.3" /><path
         id="path64"
         style="fill:#739af0;fill-opacity:1;fill-rule:nonzero;stroke:none"
         d="m 7398.87,2349.8 c 11.32,-29.8 36.96,-116 1.32,-218.5 -30.58,-88 -84.27,-231.8 18.06,-233.3 102.33,-1.4 343.11,26 439.43,0 l 387.29,-0.1 c 90.29,55.4 126.65,119.7 -112.44,149.2 -345.28,42.7 -407.89,389.2 -414.51,432.8 -0.12,0.8 -0.24,1.4 -0.24,2 -7.71,65.9 -15.65,140.3 -23.23,222.1 0,0 -159.76,-118.3 -419.69,-46.6 v -0.1 c 43.59,-116.3 85,-217 119.31,-296.4 0,0 0.12,-0.2 0.24,-0.6 0.12,-0.1 0.24,-0.3 0.37,-0.7 0.23,-0.6 0.47,-1.3 0.84,-2.1 l 0.11,-0.1 c 0.85,-2.3 1.93,-4.5 2.9,-6.8 0,-0.3 0.12,-0.5 0.24,-0.8" /><path
         id="path66"
         style="fill:#739af0;fill-opacity:1;fill-rule:nonzero;stroke:none"
         d="m 4878.97,1898 c 102.34,-1.4 343.12,26 439.43,0 l 387.29,-0.1 c 90.3,55.4 124.73,107.1 -112.32,149.2 -349.01,61.8 -388.5,221.1 -373.09,325.3 9.15,27.4 19.99,59.6 32.15,95.8 0.24,0.5 0.35,0.7 0.35,0.7 22.16,65.6 49.12,144.5 79.71,231.9 -99.57,-0.9 -281.6,9.6 -444.85,84 -2.64,-108.9 -1.44,-208.1 1.81,-293.4 0.6,-18.3 1.44,-35.9 2.16,-52.8 1.93,-76.2 0.48,-217.8 -30.69,-307.3 -30.58,-88 -84.27,-231.8 18.05,-233.3" /><path
         id="path68"
         style="fill:#f4a671;fill-opacity:1;fill-rule:nonzero;stroke:none"
         d="m 7155.61,10154 c 0,0 502.71,-156.2 560.81,-376.9 92.66,-352.2 211,-1047.8 211,-1047.8 l 539.29,668.7 194.14,-93.4 c 0,0 -460.2,-1236.8 -848.48,-1179.3 -388.29,57.5 -656.76,2028.7 -656.76,2028.7" /><path
         id="path70"
         style="fill:#ffb27d;fill-opacity:1;fill-rule:nonzero;stroke:none"
         d="M 6014.03,10005.9 C 5826.52,9593.3 5639.32,8202 5587.03,8080 5534.75,7958 5374.99,7287 5238.46,6955.8 l 174.29,-52.2 c 0,0 575.15,954.2 627.43,1202.5 52.28,248.4 338.98,1258.4 338.98,1258.4 0,0 -307.03,769.2 -365.13,641.4" /><path
         id="path72"
         style="fill:#739af0;fill-opacity:1;fill-rule:nonzero;stroke:none"
         d="M 6177.13,9044.2 5903.47,7353.1 c 0,0 665.01,-368.2 1818.07,2 0,0 -77.97,1637 -14,1968.2 2.26,11.9 4.1,23.8 5.49,35.5 36.95,315 -54.09,548 -125.32,698.5 0,0 -402.33,221.9 -1126.32,121.8 -103.71,-14.3 -284.51,-40.4 -415.75,-135.9 0,0 88.71,-110.8 144.39,-243.7 16.39,-39.1 29.89,-79.9 37.47,-120.4 20.31,-108.5 74.08,-315.2 -47.92,-477.8 l -2.45,-157.1" /><path
         id="path74"
         style="fill:#ef7e29;fill-opacity:1;fill-rule:nonzero;stroke:none"
         d="m 4626.75,6844.7 c 43.15,160.9 213.62,254.9 380.75,210.1 42.77,-11.5 81.13,-31 113.88,-56.2 l 65.85,-47.8 -8.05,-10.3 c 55.07,-72 77.56,-166 52.85,-258.1 -43.15,-160.9 -213.62,-255 -380.76,-210.2 -10.47,2.9 -20.68,6.1 -30.61,9.9 l -7.64,-9.8 -74.62,55.3 0.04,0.1 c -95.96,73.4 -143.91,196.8 -111.69,317" /><path
         id="path76"
         style="fill:#f99746;fill-opacity:1;fill-rule:nonzero;stroke:none"
         d="m 5294.46,6636.9 c 43.15,160.9 -57.38,327.6 -224.52,372.5 -167.14,44.8 -337.61,-49.3 -380.75,-210.2 -43.14,-160.8 57.38,-327.6 224.52,-372.4 167.14,-44.8 337.61,49.2 380.75,210.1" /><path
         id="path78"
         style="fill:#ef7e29;fill-opacity:1;fill-rule:nonzero;stroke:none"
         d="m 4933.62,6720.7 c 3.14,36 46.8,71.5 93.77,54.1 19.04,-7 522.78,-322.3 522.78,-322.3 l -107.77,-133.4 -488.84,349 c 0,0 -23.13,16.2 -19.94,52.6" /><path
         id="path80"
         style="fill:#ef7e29;fill-opacity:1;fill-rule:nonzero;stroke:none"
         d="m 9028.3,9801.6 c -43.15,160.9 -213.62,254.9 -380.76,210.1 -42.76,-11.5 -81.12,-31 -113.87,-56.3 l -65.84,-47.7 8.03,-10.3 c -55.06,-72 -77.54,-166 -52.84,-258.1 43.15,-160.9 213.62,-255 380.75,-210.2 10.48,2.9 20.69,6.1 30.62,9.9 l 7.64,-9.8 74.63,55.3 -0.05,0.1 c 95.96,73.4 143.91,196.8 111.69,317" /><path
         id="path82"
         style="fill:#f99746;fill-opacity:1;fill-rule:nonzero;stroke:none"
         d="m 8360.59,9593.8 c -43.15,160.9 57.37,327.6 224.52,372.4 167.14,44.9 337.6,-49.2 380.75,-210.1 43.14,-160.8 -57.38,-327.6 -224.52,-372.4 -167.14,-44.8 -337.61,49.2 -380.75,210.1" /><path
         id="path84"
         style="fill:#ef7e29;fill-opacity:1;fill-rule:nonzero;stroke:none"
         d="m 8721.43,9677.6 c -3.14,36 -46.79,71.5 -93.77,54.1 -19.04,-7 -522.78,-322.3 -522.78,-322.3 l 107.77,-133.4 488.83,349 c 0,0 23.14,16.2 19.95,52.6" /><path
         id="path86"
         style="fill:#f4a671;fill-opacity:1;fill-rule:nonzero;stroke:none"
         d="m 8659.76,9303.5 c 0,0 179.77,222.9 50.34,337.9 -129.44,115.1 -297.21,81.5 -302.01,14.4 -4.79,-67.1 57.53,-258.9 57.53,-258.9 l 194.14,-93.4" /><path
         id="path88"
         style="fill:#ffb27d;fill-opacity:1;fill-rule:nonzero;stroke:none"
         d="m 5250.81,6984.9 c 0,0 -53.01,-124.9 -108.2,-159.8 -55.19,-34.8 -133.63,-119.1 -119.1,-185.9 14.52,-66.8 29.05,-171.3 98.77,-171.3 69.71,0 232.37,307.9 252.71,365.9 20.33,58.1 37.76,69.8 37.76,69.8 l -161.94,81.3" /><path
         id="path90"
         style="fill:#ef7e29;fill-opacity:1;fill-rule:nonzero;stroke:none"
         d="m 5011.39,6556 c 46.93,175 232.37,277.4 414.2,228.6 46.52,-12.5 88.25,-33.7 123.88,-61.2 l 71.63,-51.9 -8.75,-11.2 c 59.91,-78.3 84.37,-180.6 57.49,-280.8 -46.93,-175 -232.38,-277.4 -414.21,-228.6 -11.39,3 -22.5,6.6 -33.3,10.7 l -8.31,-10.6 -81.18,60.1 0.05,0.1 c -104.4,79.9 -156.56,214.1 -121.5,344.8" /><path
         id="path92"
         style="fill:#f99746;fill-opacity:1;fill-rule:nonzero;stroke:none"
         d="m 5737.76,6330 c 46.94,175 -62.42,356.4 -244.24,405.2 -181.83,48.7 -367.27,-53.6 -414.21,-228.6 -46.93,-175 62.42,-356.4 244.24,-405.2 181.83,-48.7 367.28,53.6 414.21,228.6" /><path
         id="path94"
         style="fill:#ef7e29;fill-opacity:1;fill-rule:nonzero;stroke:none"
         d="m 5300.52,6460.6 c 15.23,56.8 75.44,90.1 134.47,74.2 15.1,-4 28.65,-10.9 40.22,-19.8 l 23.26,-16.9 -2.84,-3.6 c 19.45,-25.5 27.39,-58.7 18.66,-91.2 -15.24,-56.8 -75.45,-90.1 -134.48,-74.2 -3.7,1 -7.3,2.1 -10.81,3.4 l -2.7,-3.4 -26.35,19.5 h 0.01 c -33.89,26 -50.82,69.6 -39.44,112" /><path
         id="path96"
         style="fill:#f99746;fill-opacity:1;fill-rule:nonzero;stroke:none"
         d="m 5536.34,6387.2 c 15.24,56.8 -20.27,115.7 -79.29,131.6 -59.04,15.8 -119.25,-17.4 -134.48,-74.2 -15.24,-56.9 20.26,-115.7 79.3,-131.6 59.03,-15.8 119.23,17.4 134.47,74.2" /><path
         id="path98"
         style="fill:#ef7e29;fill-opacity:1;fill-rule:nonzero;stroke:none"
         d="m 8643.66,9512.9 c -46.93,175 -232.38,277.4 -414.2,228.6 -46.52,-12.5 -88.25,-33.7 -123.88,-61.2 l -71.63,-51.9 8.75,-11.2 c -59.91,-78.3 -84.37,-180.6 -57.49,-280.9 46.93,-175 232.38,-277.3 414.2,-228.5 11.4,3 22.5,6.6 33.31,10.7 l 8.31,-10.7 81.18,60.2 -0.05,0.1 c 104.4,79.9 156.56,214.1 121.5,344.8" /><path
         id="path100"
         style="fill:#f99746;fill-opacity:1;fill-rule:nonzero;stroke:none"
         d="m 7917.29,9286.9 c -46.93,175 62.42,356.4 244.24,405.2 181.83,48.7 367.27,-53.6 414.21,-228.6 46.93,-175 -62.42,-356.4 -244.25,-405.2 -181.82,-48.7 -367.27,53.6 -414.2,228.6" /><path
         id="path102"
         style="fill:#ef7e29;fill-opacity:1;fill-rule:nonzero;stroke:none"
         d="m 8354.53,9417.5 c -15.23,56.8 -75.44,90 -134.47,74.2 -15.1,-4 -28.65,-10.9 -40.22,-19.8 l -23.26,-16.9 2.84,-3.7 c -19.44,-25.4 -27.39,-58.6 -18.66,-91.1 15.24,-56.8 75.45,-90.1 134.47,-74.2 3.71,1 7.31,2.1 10.82,3.4 l 2.7,-3.4 26.35,19.5 h -0.01 c 33.89,26 50.82,69.6 39.44,112" /><path
         id="path104"
         style="fill:#f99746;fill-opacity:1;fill-rule:nonzero;stroke:none"
         d="m 8118.71,9344.1 c -15.24,56.8 20.26,115.7 79.3,131.6 59.03,15.8 119.24,-17.4 134.47,-74.2 15.24,-56.9 -20.26,-115.8 -79.3,-131.6 -59.03,-15.8 -119.23,17.4 -134.47,74.2" /><path
         id="path106"
         style="fill:#739af0;fill-opacity:1;fill-rule:nonzero;stroke:none"
         d="m 6445.36,10168.1 c 0,0 -282.65,-20.7 -456.11,-136.6 -173.45,-115.8 -333.86,-778.2 -333.86,-778.2 0,0 151.49,-216.9 549.54,-190.2 l 282.2,327.6 -41.77,777.4" /><path
         id="path108"
         style="fill:#2c3a64;fill-opacity:1;fill-rule:nonzero;stroke:none"
         d="m 6566.88,11766.7 c 0,0 -69.71,278.9 -479.28,191.7 0,0 196.07,24.7 249.8,-50.8 0,0 -155.4,71.2 -252.71,11.6 -97.31,-59.5 -113.28,-259.9 -98.76,-320.9 14.52,-61 122,-242.6 193.17,-242.6 71.16,0 155.4,62.5 155.4,62.5 l 232.38,348.5" /><path
         id="path110"
         style="fill:#2c3a64;fill-opacity:1;fill-rule:nonzero;stroke:none"
         d="m 7303.24,11479.2 c 0,0 -518.5,623 -793,224.4 0,0 -204.79,-85 -278.86,-433.6 -75.57,-355.6 160.93,-626 283.21,-559.1 78.43,42.8 137.8,-94.5 137.8,-94.5 l 650.85,862.8" /><path
         id="path112"
         style="fill:#ffb27d;fill-opacity:1;fill-rule:nonzero;stroke:none"
         d="m 7090.03,10090.9 c -199.9,-107.9 -474.03,4 -535.71,84.9 -22.8,29.9 101.41,180.4 100.19,521.1 l 26.08,-5.1 438.64,-86.8 c 0,0 -9.98,-138.1 -10.27,-268.1 -0.3,-109.2 5.34,-232.8 -18.93,-246" /><path
         id="path114"
         style="fill:#f4a671;fill-opacity:1;fill-rule:nonzero;stroke:none"
         d="m 7119.23,10605 c 0,0 -9.98,-138.1 -10.27,-268.1 -245.46,6.9 -375.21,230.8 -428.37,354.9 l 438.64,-86.8" /><path
         id="path116"
         style="fill:#2c3a64;fill-opacity:1;fill-rule:nonzero;stroke:none"
         d="m 6635.29,10739.6 c 0,0 -128.63,203.2 -159.5,377 -22.04,124.1 41.15,584 503.31,517.8 0,0 134.23,-13.3 260.4,-98.5 100.34,-67.8 245.16,-214.1 83.24,-615.4 l -42.06,-135.6 -645.39,-45.3" /><path
         id="path118"
         style="fill:#ffb27d;fill-opacity:1;fill-rule:nonzero;stroke:none"
         d="m 7201.2,10481.8 c 0,0 -580.74,-9.6 -581.14,352.2 -0.4,361.7 -75.63,604.1 295.15,625.5 370.77,21.4 442.96,-116.5 472.47,-237.2 29.5,-120.7 -35.42,-728.7 -186.48,-740.5" /><path
         id="path120"
         style="fill:#2c3a64;fill-opacity:1;fill-rule:nonzero;stroke:none"
         d="m 7179.71,11468.4 c 0,0 -159.01,-424.4 -403.03,-487.1 -244.02,-62.8 -349.87,2.6 -349.87,2.6 0,0 187.17,148.7 226.02,408.2 0,0 406.94,278.3 526.88,76.3" /><path
         id="path122"
         style="fill:#2c3a64;fill-opacity:1;fill-rule:nonzero;stroke:none"
         d="m 7140.3,11433.9 c 0,0 118.74,-94.7 147.7,-186.8 28.95,-92.1 41.97,-281.8 97.24,-275.3 0,0 119.79,288.4 -14.83,451.6 -142.76,173.1 -230.11,10.5 -230.11,10.5" /><path
         id="path124"
         style="fill:#2c3a64;fill-opacity:1;fill-rule:nonzero;stroke:none"
         d="m 7162.36,11419.6 c 0,0 -113.29,-444.4 -421.19,-586.7 0,0 307.9,273 334.04,566.4 26.15,293.4 87.15,20.3 87.15,20.3" /><path
         id="path126"
         style="fill:#ffffff;fill-opacity:1;fill-rule:nonzero;stroke:none"
         d="m 7270.08,10693.9 c 0,0 -15.06,-33.3 -21.67,-49.9 -6.61,-16.6 -103.35,-17.3 -133.95,1.2 -25.45,15.5 -56.6,58.2 -54.97,56.6 0,0 167.04,3.9 210.59,-7.9" /><path
         id="path128"
         style="fill:#739af0;fill-opacity:1;fill-rule:nonzero;stroke:none"
         d="m 7587.71,10057.3 c 0,0 249.02,-98.1 288.63,-731.8 0,0 -83.67,-127.2 -250.16,-159.1 -302.42,-57.9 -38.47,890.9 -38.47,890.9" /><path
         id="path130"
         style="fill:#dce5ff;fill-opacity:1;fill-rule:nonzero;stroke:none"
         d="m 15764.8,8398.1 h -2381.6 c -149.8,0 -272.3,122.6 -272.3,272.4 v 3559.7 c 0,149.8 122.5,272.4 272.3,272.4 h 2381.6 c 149.8,0 272.4,-122.6 272.4,-272.4 V 8670.5 c 0,-149.8 -122.6,-272.4 -272.4,-272.4" /><path
         id="path132"
         style="fill:#f77d48;fill-opacity:1;fill-rule:nonzero;stroke:none"
         d="m 15569,11879.8 c -419.4,541.8 -972.8,-122.3 -972.8,-122.3 0,0 -553.5,664.1 -972.9,122.3 -419.5,-541.7 972.9,-1584.5 972.9,-1584.5 0,0 1392.3,1042.8 972.8,1584.5" /><path
         id="path134"
         style="fill:#ffffff;fill-opacity:1;fill-rule:nonzero;stroke:none"
         d="m 14593.3,11062.4 c -0.5,0 -0.9,0 -1.3,0 -7.9,0.7 -14.2,6.7 -15.1,14.6 l -41.1,365.3 -77.9,-366.9 c -1.7,-7.6 -8.4,-13 -16.1,-13 h -145.7 c -6.2,0 -11.9,3.5 -14.6,9.1 l -38.5,77 -43.2,-77.7 c -2.9,-5.2 -8.4,-8.4 -14.3,-8.4 h -87.4 c -7,0 -13.2,4.4 -15.5,10.9 l -90.9,257.6 -111.6,-258.6 c -2.6,-6 -8.5,-9.9 -15.1,-9.9 h -419.4 c -9.1,0 -16.4,7.3 -16.4,16.4 0,9.1 7.3,16.4 16.4,16.4 h 408.6 l 123.9,287.2 c 2.7,6.2 9.1,10 15.7,9.9 6.7,-0.2 12.7,-4.5 14.9,-10.9 l 101,-286.2 h 66.1 l 53.6,96.4 c 2.9,5.4 8.9,8.8 14.7,8.5 6.1,-0.1 11.6,-3.6 14.3,-9.1 l 47.9,-95.8 h 122.2 l 96.3,453.1 c 1.6,7.9 8.6,13.5 16.8,13 8.1,-0.4 14.6,-6.6 15.5,-14.6 l 42.9,-381.3 41.5,150.8 c 2,7.3 8.5,12.2 16.4,12 7.6,-0.2 14,-5.7 15.5,-13.1 l 44,-219.9 h 172.7 l 136.1,414 c 2.4,7.2 9.4,11.9 16.8,11.2 7.5,-0.5 13.7,-6 15,-13.4 l 73.3,-411.8 h 51.7 l 71.2,148 c 3,6.2 9.4,9.9 16.4,9.2 6.9,-0.6 12.6,-5.5 14.3,-12.2 l 37.6,-145 h 237.8 c 9.1,0 16.4,-7.3 16.4,-16.4 0,-9.1 -7.3,-16.4 -16.4,-16.4 h -250.5 c -7.5,0 -14,5 -15.9,12.3 l -29.5,113.9 -56.3,-116.9 c -2.7,-5.7 -8.5,-9.3 -14.8,-9.3 h -75.7 c -8,0 -14.8,5.7 -16.2,13.5 l -64.3,361.2 -119.5,-363.4 c -2.2,-6.8 -8.5,-11.3 -15.6,-11.3 h -198.1 c -7.8,0 -14.5,5.5 -16.1,13.2 l -33,165.1 -45.7,-166.3 c -2,-7.1 -8.5,-12 -15.8,-12" /><g
         transform="scale(1.18965)"
         id="g136"><path
           id="path138"
           style="fill:#739af0;fill-opacity:1;fill-rule:nonzero;stroke:none"
           d="m 16077.2,7059.3 h -1883.3 c -122.5,0 -222.7,100.28 -222.7,222.76 v 3004.64 c 0,122.5 100.2,222.7 222.7,222.7 h 1883.3 c 122.6,0 222.8,-100.2 222.8,-222.7 V 7282.06 c 0,-122.48 -100.2,-222.76 -222.8,-222.76" /></g><g
         transform="scale(1.10154)"
         id="g140"><path
           id="path142"
           style="fill:#dce5ff;fill-opacity:1;fill-rule:nonzero;stroke:none"
           d="m 16268.8,10162 c 31.2,-428.7 -134.2,-512.05 -299.7,-512.05 -165.6,0 -349,55.03 -299.8,512.05 30.4,281.2 134.2,512.1 299.8,512.1 165.5,0 279.2,-230 299.7,-512.1" /></g><g
         transform="scale(1.09969)"
         id="g144"><path
           id="path146"
           style="fill:#dce5ff;fill-opacity:1;fill-rule:nonzero;stroke:none"
           d="m 16269.6,9254.39 c 30.4,-233.37 -122.5,-273.65 -273.6,-273.65 -151.1,0 -308.4,22.09 -273.6,273.65 20.6,149.68 122.5,273.61 273.6,273.61 151.1,0 254.1,-123.77 273.6,-273.61" /></g><g
         transform="scale(1.15268)"
         id="g148"><path
           id="path150"
           style="fill:#dce5ff;fill-opacity:1;fill-rule:nonzero;stroke:none"
           d="m 16270.2,9376.12 c 29.8,-409.73 -128.3,-489.38 -286.5,-489.38 -158.2,0 -333.5,52.59 -286.4,489.38 29,268.72 128.2,489.37 286.4,489.37 158.2,0 266.9,-219.81 286.5,-489.37" /></g><g
         transform="scale(1.15083)"
         id="g152"><path
           id="path154"
           style="fill:#dce5ff;fill-opacity:1;fill-rule:nonzero;stroke:none"
           d="m 16270.9,8507.52 c 29.1,-222.96 -117.1,-261.46 -261.5,-261.46 -144.3,0 -294.6,21.03 -261.4,261.46 19.8,143.03 117.1,261.47 261.4,261.47 144.4,0 242.8,-118.26 261.5,-261.47" /></g><g
         transform="scale(1.18965)"
         id="g156"><path
           id="path158"
           style="fill:#739af0;fill-opacity:1;fill-rule:nonzero;stroke:none"
           d="m 15967.7,3136.55 h -4669.3 c -182.8,0 -332.3,149.54 -332.3,332.37 v 2687.09 c 0,182.83 149.5,332.37 332.3,332.37 h 4669.3 c 182.8,0 332.3,-149.54 332.3,-332.37 V 3468.92 c 0,-182.83 -149.5,-332.37 -332.3,-332.37" /></g><path
         id="path160"
         style="fill:#163560;fill-opacity:1;fill-rule:nonzero;stroke:none"
         d="m 14241.2,13590.1 h -1003.1 c -32.8,0 -59.4,26.6 -59.4,59.5 v 0 c 0,32.8 26.6,59.4 59.4,59.4 h 1003.1 c 32.8,0 59.4,-26.6 59.4,-59.4 v 0 c 0,-32.9 -26.6,-59.5 -59.4,-59.5" /><path
         id="path162"
         style="fill:#163560;fill-opacity:1;fill-rule:nonzero;stroke:none"
         d="m 14241.2,13342.9 h -1003.1 c -32.8,0 -59.4,26.7 -59.4,59.5 v 0 c 0,32.8 26.6,59.4 59.4,59.4 h 1003.1 c 32.8,0 59.4,-26.6 59.4,-59.4 v 0 c 0,-32.8 -26.6,-59.5 -59.4,-59.5" /><path
         id="path164"
         style="fill:#163560;fill-opacity:1;fill-rule:nonzero;stroke:none"
         d="m 14241.2,13106.4 h -1003.1 c -32.8,0 -59.4,26.6 -59.4,59.4 v 0 c 0,32.8 26.6,59.4 59.4,59.4 h 1003.1 c 32.8,0 59.4,-26.6 59.4,-59.4 v 0 c 0,-32.8 -26.6,-59.4 -59.4,-59.4" /><g
         transform="scale(1.44887)"
         id="g166"><path
           id="path168"
           style="fill:#f99746;fill-opacity:1;fill-rule:nonzero;stroke:none"
           d="m 15700.5,4109.34 c -73.9,-72.2 -182.8,-144.8 -26,-327.71 201.2,-234.46 478.7,-1212.39 478.7,-1212.39 -13.3,-36.03 -4.5,-87.58 -31.4,-101.11 -43.5,-21.88 -147.2,57.84 -147.2,57.84 0,0 -924.3,1068.34 -991.3,1300.87 -49.5,171.72 295.1,971.59 498,1389.43 71.8,148.04 126,248.05 138.4,255.44 2,1.1 3.8,2.21 5.8,3.17 109.2,61.15 208.1,47.21 294,-8.97 18.4,-12.01 36.1,-25.88 53.3,-41.48 209.4,-189.8 327.2,-619.31 307.8,-706.2 -13.5,-60.47 -127.5,-183.87 -251.7,-304.72 -25.8,-25.13 -52,-50.11 -77.9,-74.34 -112.9,-106.01 -218.8,-198.84 -250.5,-229.83" /></g><g
         transform="scale(1.42477)"
         id="g170"><path
           id="path172"
           style="fill:#ed7d2b;fill-opacity:1;fill-rule:nonzero;stroke:none"
           d="m 16300,4488.15 c -26.3,-25.55 -52.9,-50.95 -79.2,-75.59 l -477.7,891.93 c 73.1,150.55 128.1,252.26 140.8,259.76 2,1.13 3.9,2.25 5.9,3.23 l 299,-9.12 54,-1.69 0.1,-40.49 57.1,-1028.03" /></g><g
         transform="scale(1.4216)"
         id="g174"><path
           id="path176"
           style="fill:#ffb27d;fill-opacity:1;fill-rule:nonzero;stroke:none"
           d="m 16203.1,7524.02 c 0,0 96.9,-279.55 59,-440.68 -37.9,-161.14 -467.3,-950.75 -615.3,-1081.8 -147.9,-131.05 -1046.4,509.92 -1046.4,509.92 l 96.3,82.51 c 0,0 726,-227.63 768.2,-171 42.2,56.69 292.7,1201.57 738.2,1101.05" /></g><g
         transform="scale(1.52392)"
         id="g178"><path
           id="path180"
           style="fill:#f99746;fill-opacity:1;fill-rule:nonzero;stroke:none"
           d="m 14985.4,5020.73 c 0,0 129.5,-900.57 544.8,-1551.85 401.3,-629.43 576.6,-1569.96 576.6,-1569.96 0,0 27.6,-24.08 85.7,-3.09 58.1,21 94.6,-10.3 107.5,16.67 0,0 -2.1,1469.7 -210,1802.79 -117.4,188.2 -149,857.26 -134.8,1038.11 14.2,180.78 -52.9,407.11 -52.9,407.11 l -916.9,-139.78" /></g><g
         transform="scale(1.53053)"
         id="g182"><path
           id="path184"
           style="fill:#233862;fill-opacity:1;fill-rule:nonzero;stroke:none"
           d="m 16209.4,1639.75 -104.7,5.82 c -34.7,7.51 -60,19.08 -95.8,25.81 -54.1,10.19 -80.5,-10.78 -85.8,-15.62 -0.7,-0.65 -1.1,-0.98 -1.1,-0.98 l -444.5,24.83 c -10.3,16.6 2.5,52.99 14.5,79.65 8.1,18.09 24.4,31.23 43.8,35.67 47.9,11.04 141.5,17.97 230.9,90.3 50.3,40.57 240.1,146.15 240.1,146.15 l 1,0.2 c 4.1,-0.33 22.9,-7.32 102.3,-82.39 41.1,-38.68 119.5,44.82 119.5,44.82 0,0 13.2,-12.15 22.2,-34.04 7.4,-17.18 12.2,-40.57 5.8,-68.73 -8.9,-39.73 8.4,-115.32 22.7,-166.61 8.6,-31.1 16.1,-53.25 16.1,-53.25 0,0 3.6,-25.42 -87,-31.63" /></g><g
         transform="scale(1.52601)"
         id="g186"><path
           id="path188"
           style="fill:#233862;fill-opacity:1;fill-rule:nonzero;stroke:none"
           d="m 16300,1965.78 c -26,-16.25 -80.9,-48.04 -116.2,-50.66 -47.7,-3.54 -129.5,122.28 -129.5,122.28 l 0.9,0.2 c 4.1,-0.33 23,-7.34 102.7,-82.63 41.2,-38.8 119.8,44.95 119.8,44.95 0,0 13.2,-12.19 22.3,-34.14" /></g><g
         transform="scale(1.53053)"
         id="g190"><path
           id="path192"
           style="fill:#233862;fill-opacity:1;fill-rule:nonzero;stroke:none"
           d="m 16209.4,1639.75 -104.7,5.82 c -34.7,7.51 -60,19.08 -95.8,25.81 -54.1,10.19 -80.5,-10.78 -85.8,-15.62 -0.7,-0.65 -1.1,-0.98 -1.1,-0.98 l -444.5,24.83 c -10.3,16.6 2.5,52.99 14.5,79.65 14.2,11.23 14.4,-53.12 21.3,-63.77 6.9,-10.65 362.5,-23.98 383.8,-10.26 21.4,13.79 84.4,36.46 169,11.17 73.7,-22.02 186.2,17.58 214.2,28.23 8.6,-31.1 16.1,-53.25 16.1,-53.25 0,0 3.6,-25.42 -87,-31.63" /></g><g
         transform="scale(1.50482)"
         id="g194"><path
           id="path196"
           style="fill:#739af0;fill-opacity:1;fill-rule:nonzero;stroke:none"
           d="m 16162.8,5791.81 c 28,505.77 -24.7,1240.83 -148.2,1303.82 -104.9,53.49 -335.6,134.4 -577.5,143.93 -190.9,7.53 -602.3,-59.44 -660.9,-372.38 -37.1,-198.09 -56.7,-361.87 -56.7,-361.87 0,0 36.9,-129.71 155.5,-170.52 11.9,-57.15 15.8,-113.36 31.1,-161.61 171.5,-538.27 44.3,-1060.53 44.3,-1060.53 175.9,-163.34 1098,-123.67 1193.7,-68.44 155.9,89.91 -9.3,241.82 18.7,747.6" /></g><g
         transform="scale(1.46006)"
         id="g198"><path
           id="path200"
           style="fill:#233862;fill-opacity:1;fill-rule:nonzero;stroke:none"
           d="m 16236.4,2407.43 -82.8,-72.12 c -31.6,-19.79 -59.1,-29.58 -90.8,-50.68 -48.2,-31.92 -52.6,-66.98 -53.1,-74.52 0,-1.02 0,-1.5 0,-1.5 l -352.1,-306.43 c -19.8,5 -36.9,41.64 -47.3,70.48 -7.1,19.52 -4.6,41.3 6.8,58.83 27.9,43.29 93.1,116.98 107.4,236.63 8.1,67.26 73.5,285.4 73.5,285.4 l 0.6,0.82 c 3.2,2.74 22.4,11.31 137,13.02 59.2,0.89 57,120.95 57,120.95 0,0 18.8,0.48 41.6,-9.24 18.1,-7.61 38.8,-21.65 54.6,-47.47 22.4,-36.3 90.6,-80.54 138.8,-108.62 29.3,-16.99 51.1,-28.15 51.1,-28.15 0,0 21.3,-16.44 -42.3,-87.4" /></g><g
         transform="scale(1.43625)"
         id="g202"><path
           id="path204"
           style="fill:#233862;fill-opacity:1;fill-rule:nonzero;stroke:none"
           d="m 16300,2723.48 c -7.8,-31.68 -25.9,-96.57 -50.9,-124.7 -33.7,-38.09 -189.2,-2.93 -189.2,-2.93 l 0.6,0.84 c 3.3,2.78 22.8,11.49 139.3,13.23 60.2,0.9 57.9,122.96 57.9,122.96 0,0 19.1,0.49 42.3,-9.4" /></g><g
         transform="scale(1.46006)"
         id="g206"><path
           id="path208"
           style="fill:#233862;fill-opacity:1;fill-rule:nonzero;stroke:none"
           d="m 16236.4,2407.43 -82.8,-72.12 c -31.6,-19.79 -59.1,-29.58 -90.8,-50.68 -48.2,-31.92 -52.6,-66.98 -53.1,-74.52 0,-1.02 0,-1.5 0,-1.5 l -352.1,-306.43 c -19.8,5 -36.9,41.64 -47.3,70.48 2.4,18.83 49.7,-29.38 62.6,-32.33 12.9,-2.95 289.8,247.04 295.7,272.93 6,25.96 36.8,89.11 118.8,131.99 71.4,37.32 127.1,149.37 140.2,177.73 29.3,-16.99 51.1,-28.15 51.1,-28.15 0,0 21.3,-16.44 -42.3,-87.4" /></g><g
         transform="scale(1.56528)"
         id="g210"><path
           id="path212"
           style="fill:#ffb27d;fill-opacity:1;fill-rule:nonzero;stroke:none"
           d="m 15139.8,6771.21 c 0,0 268.4,-11.74 391.8,-97.68 123.3,-85.96 646.2,-712.86 707.3,-881.65 61.1,-168.78 -609.2,-603.98 -609.2,-603.98 l -83,149.62 c 0,0 309.2,387.28 275.5,441.91 -33.7,54.56 -916.5,649.35 -682.4,991.78" /></g><g
         transform="scale(1.50615)"
         id="g214"><path
           id="path216"
           style="fill:#ffb27d;fill-opacity:1;fill-rule:nonzero;stroke:none"
           d="m 16193.4,5568.23 106.6,-91.76 c 0,0 -109.4,-205.96 -163.9,-222.89 l -5.6,-0.8 c -58,-8.36 -195.5,92.62 -214.1,190.22 -1.5,10.03 -0.5,19.33 2.8,27.76 25.3,57.03 160.7,82.79 231.3,92.55 25.8,3.52 42.9,4.92 42.9,4.92" /></g><g
         transform="scale(1.28876)"
         id="g218"><path
           id="path220"
           style="fill:#ffb27d;fill-opacity:1;fill-rule:nonzero;stroke:none"
           d="m 16300,7246.88 -73.3,-147.11 c 0,0 -264.8,64.79 -299.6,121.66 l -2.5,6.13 c -26.1,63.32 48.8,248.15 154,297.26 11,4.51 21.8,6.06 32.2,4.74 71.9,-12.18 140,-158.29 171.3,-235.5 11.4,-28.17 17.9,-47.18 17.9,-47.18" /></g><g
         transform="scale(1.52175)"
         id="g222"><path
           id="path224"
           style="fill:#739af0;fill-opacity:1;fill-rule:nonzero;stroke:none"
           d="m 15477.3,7133.57 c 0,0 255.3,-25.49 432.8,-149.57 81.7,-57.15 389.9,-382.88 389.9,-382.88 0,0 -53.6,-319.79 -445.5,-385.9 -398.9,-67.29 -426.2,594.76 -426.2,594.76 l 49,323.59" /></g><g
         transform="scale(1.43943)"
         id="g226"><path
           id="path228"
           style="fill:#ffb27d;fill-opacity:1;fill-rule:nonzero;stroke:none"
           d="m 16288,7540.66 c 12,-19.78 11,-44.79 -2.4,-63.65 -39.4,-55.62 -146.6,-149.65 -410.5,-116.95 -90.4,11.2 -107.5,80.99 -46.2,148.4 14.9,16.42 15.6,115.51 16.3,155.24 -0.3,91.89 5.9,143.2 5.9,143.2 l 194.8,118.24 184.8,113.34 c -45.1,-286.24 22.8,-440.82 57.3,-497.82" /></g><g
         transform="scale(1.43203)"
         id="g230"><path
           id="path232"
           style="fill:#ed985f;fill-opacity:1;fill-rule:nonzero;stroke:none"
           d="m 16300,7935.04 c 0,0 -142.9,-199.13 -373,-231.75 -0.2,92.37 6,143.94 6,143.94 l 195.8,118.86 171.2,-31.05" /></g><g
         transform="scale(1.45314)"
         id="g234"><path
           id="path236"
           style="fill:#ffb27d;fill-opacity:1;fill-rule:nonzero;stroke:none"
           d="m 15622.1,7749.07 c 0,0 426.7,-124.04 500.1,138.65 73.3,262.7 177.8,423.61 -91.6,513.92 -269.4,90.3 -350.5,4.65 -396.7,-77.09 -46.1,-81.74 -121,-536.44 -11.8,-575.48" /></g><g
         transform="scale(1.46017)"
         id="g238"><path
           id="path240"
           style="fill:#2c3a64;fill-opacity:1;fill-rule:nonzero;stroke:none"
           d="m 16265.7,8355.65 c 4.5,4.03 14,6.56 34.3,5.22 0,0 -14.9,12.04 -36.4,15.2 -0.8,28.59 -9.7,80.09 -56.6,98.03 0,0 24.3,-16.99 24.1,-47.25 -49,64.27 -163.9,120.65 -499.1,134.74 -441.8,18.55 -331.6,-279.14 -279,-319.42 52.6,-40.27 206.4,34 310.9,12.81 104.5,-21.18 106.1,-176.15 139.4,-201.43 33.2,-25.28 23.7,13.44 74.7,29.46 51.1,16.03 46,-64.82 25.7,-115.32 -20.3,-50.5 37.9,-127.43 37.9,-127.43 0,0 0,0 76.1,64.29 76,64.28 176.7,363.47 154,432.6 -2,6.1 -4,12.28 -6,18.5" /></g><g
         transform="scale(1.40153)"
         id="g242"><path
           id="path244"
           style="fill:#ffffff;fill-opacity:1;fill-rule:nonzero;stroke:none"
           d="m 16168.3,8210.83 c 0,0 10,-41.53 55.1,-49.31 45.1,-7.78 76.6,22.96 76.6,22.96 0,0 -72.6,38.76 -131.7,26.35" /></g><g
         transform="scale(1.19894)"
         id="g246"><path
           id="path248"
           style="fill:#1e4077;fill-opacity:1;fill-rule:nonzero;stroke:none"
           d="m 15058,7475.03 h 475.5 l 766.5,-935.99 -527.6,48.87 -714.4,887.12" /></g><g
         transform="scale(1.69519)"
         id="g250"><path
           id="path252"
           style="fill:#3d5db7;fill-opacity:1;fill-rule:nonzero;stroke:none"
           d="M 12255.9,1764.93 C 11781,2005.97 11051,1993.7 11051,1993.7 l 243.9,2530.98 750.7,-52.14 c 29.7,-2.07 57.8,-13.98 79.9,-33.81 l 339.8,-304.27 68.6,76.63 -374.3,335.24 c -16.2,14.46 -36.6,23.36 -58.2,25.37 l -946.2,87.66 -505.3,627.42 -29.4,-23.59 c -28,-22.6 -32.4,-63.66 -9.8,-91.68 l 511,-634.79 v 0 l -314.8,-3267.01 v -33.15 c 0,-55.98 45.4,-101.41 101.4,-101.41 H 16300 v 51.38 83.18 0 c 0,59.46 -45.8,108.96 -105.1,113.5 l -3542.4,272.48 c -138,10.61 -273.2,46.6 -396.6,109.24" /></g><g
         transform="scale(1.31615)"
         id="g254"><path
           id="path256"
           style="fill:#f99746;fill-opacity:1;fill-rule:nonzero;stroke:none"
           d="m 16266,5292.09 -69.9,-78.33 c -34.1,-38.07 -93,-41.41 -131.1,-7.45 l -451.7,403.3 c -38.1,34.03 -41.4,92.99 -7.4,131.06 l 70,78.33 c 34,38.07 92.9,41.41 131.1,7.45 l 451.6,-403.3 c 38.1,-33.96 41.4,-93 7.4,-131.06" /></g><g
         transform="scale(1.25744)"
         id="g258"><path
           id="path260"
           style="fill:#3d5db7;fill-opacity:1;fill-rule:nonzero;stroke:none"
           d="m 15038.7,6281.43 408.3,69.11 853,-185.93 -1261.3,116.82" /></g><path
         id="path262"
         style="fill:#dce5ff;fill-opacity:1;fill-rule:nonzero;stroke:none"
         d="m 15446.1,5207.2 h -645.6 v 385 h 645.6 v -385" /><path
         id="path264"
         style="fill:#dce5ff;fill-opacity:1;fill-rule:nonzero;stroke:none"
         d="m 15446.1,5722.7 h -645.6 v 385 h 645.6 v -385" /><g
         transform="scale(1.00029)"
         id="g266"><path
           id="path268"
           style="fill:#dce5ff;fill-opacity:1;fill-rule:nonzero;stroke:none"
           d="m 16300,5205.7 h -645.4 v 384.89 H 16300 V 5205.7" /></g><g
         transform="scale(1.00029)"
         id="g270"><path
           id="path272"
           style="fill:#dce5ff;fill-opacity:1;fill-rule:nonzero;stroke:none"
           d="m 16300,5721.05 h -645.4 v 384.89 h 645.4 v -384.89" /></g><g
         transform="scale(1.00029)"
         id="g274"><path
           id="path276"
           style="fill:#dce5ff;fill-opacity:1;fill-rule:nonzero;stroke:none"
           d="m 16300,6236.4 h -645.4 v 384.89 H 16300 V 6236.4" /></g><g
         transform="scale(1.05156)"
         id="g278"><path
           id="path280"
           style="fill:#dce5ff;fill-opacity:1;fill-rule:nonzero;stroke:none"
           d="m 16300,4951.86 h -613.9 v 366.12 h 613.9 v -366.12" /></g><g
         transform="scale(1.05156)"
         id="g282"><path
           id="path284"
           style="fill:#dce5ff;fill-opacity:1;fill-rule:nonzero;stroke:none"
           d="m 16300,5442.08 h -613.9 v 366.12 h 613.9 v -366.12" /></g><g
         transform="scale(1.10056)"
         id="g286"><path
           id="path288"
           style="fill:#dce5ff;fill-opacity:1;fill-rule:nonzero;stroke:none"
           d="m 16300,4731.42 h -586.7 v 349.82 h 586.7 v -349.82" /></g><path
         id="path290"
         style="fill:#dce5ff;fill-opacity:1;fill-rule:nonzero;stroke:none"
         d="m 15446.1,4683.8 h -645.6 v 384.9 h 645.6 v -384.9" /><g
         transform="scale(1.00029)"
         id="g292"><path
           id="path294"
           style="fill:#dce5ff;fill-opacity:1;fill-rule:nonzero;stroke:none"
           d="m 16300,4682.45 h -645.4 v 384.79 h 645.4 v -384.79" /></g><g
         transform="scale(1.05156)"
         id="g296"><path
           id="path298"
           style="fill:#dce5ff;fill-opacity:1;fill-rule:nonzero;stroke:none"
           d="m 16300,4454.13 h -613.9 v 366.02 h 613.9 v -366.02" /></g><g
         transform="scale(1.10056)"
         id="g300"><path
           id="path302"
           style="fill:#dce5ff;fill-opacity:1;fill-rule:nonzero;stroke:none"
           d="m 16300,4255.84 h -586.7 v 349.73 h 586.7 v -349.73" /></g><path
         id="path304"
         style="fill:#dce5ff;fill-opacity:1;fill-rule:nonzero;stroke:none"
         d="m 15446.1,4160.3 h -645.6 v 385 h 645.6 v -385" /><g
         transform="scale(1.00029)"
         id="g306"><path
           id="path308"
           style="fill:#dce5ff;fill-opacity:1;fill-rule:nonzero;stroke:none"
           d="m 16300,4159.1 h -645.4 v 384.89 H 16300 V 4159.1" /></g><g
         transform="scale(1.05156)"
         id="g310"><path
           id="path312"
           style="fill:#dce5ff;fill-opacity:1;fill-rule:nonzero;stroke:none"
           d="m 16300,3956.3 h -613.9 v 366.12 H 16300 V 3956.3" /></g><g
         transform="scale(1.10056)"
         id="g314"><path
           id="path316"
           style="fill:#dce5ff;fill-opacity:1;fill-rule:nonzero;stroke:none"
           d="m 16300,3780.17 h -586.7 V 4130 h 586.7 v -349.83" /></g><g
         transform="scale(1.10056)"
         id="g318"><path
           id="path320"
           style="fill:#dce5ff;fill-opacity:1;fill-rule:nonzero;stroke:none"
           d="m 16300,5199.81 h -586.7 v 349.83 h 586.7 v -349.83" /></g><g
         transform="scale(1.10056)"
         id="g322"><path
           id="path324"
           style="fill:#dce5ff;fill-opacity:1;fill-rule:nonzero;stroke:none"
           d="m 16300,5668.21 h -586.7 v 349.83 h 586.7 v -349.83" /></g><g
         transform="scale(1.10056)"
         id="g326"><path
           id="path328"
           style="fill:#dce5ff;fill-opacity:1;fill-rule:nonzero;stroke:none"
           d="m 16300,6136.7 h -586.7 v 349.73 H 16300 V 6136.7" /></g><path
         id="path330"
         style="fill:#3d5db7;fill-opacity:1;fill-rule:nonzero;stroke:none"
         d="M 13563.1,1948.7 H 9921.09 c -136.3,0 -247.82,111.5 -247.82,247.8 v 8011.6 c 0,136.3 111.52,247.8 247.82,247.8 h 3642.01 c 136.3,0 247.9,-111.5 247.9,-247.8 V 2196.5 c 0,-136.3 -111.6,-247.8 -247.9,-247.8" /><path
         id="path332"
         style="fill:#f77d48;fill-opacity:1;fill-rule:nonzero;stroke:none"
         d="M 13694.7,4012.1 H 9746.32 c -273.93,0 -498.05,224.1 -498.05,498 v 4161.7 c 0,273.9 224.12,498 498.05,498 h 3948.38 c 273.9,0 498,-224.1 498,-498 V 4510.1 c 0,-273.9 -224.1,-498 -498,-498" /><path
         id="path334"
         style="fill:#163560;fill-opacity:1;fill-rule:nonzero;stroke:none"
         d="M 13598.9,4284.9 H 9842.12 c -182.75,0 -332.29,149.6 -332.29,332.3 v 3947.5 c 0,182.7 149.54,332.3 332.29,332.3 h 3756.78 c 182.8,0 332.3,-149.6 332.3,-332.3 V 4617.2 c 0,-182.7 -149.5,-332.3 -332.3,-332.3" /><path
         id="path336"
         style="fill:#dce5ff;fill-opacity:1;fill-rule:nonzero;stroke:none"
         d="m 13437,6738.8 h -1451.8 c -75.3,0 -136.9,61.6 -136.9,136.9 v 1484.9 c 0,75.3 61.6,137 136.9,137 H 13437 c 75.3,0 136.9,-61.7 136.9,-137 V 6875.7 c 0,-75.3 -61.6,-136.9 -136.9,-136.9" /><path
         id="path338"
         style="fill:#f77d48;fill-opacity:1;fill-rule:nonzero;stroke:none"
         d="m 13348.9,8042.7 c -259.6,335.4 -602.1,-75.7 -602.1,-75.7 0,0 -342.6,411.1 -602.2,75.7 -259.6,-335.3 602.2,-980.7 602.2,-980.7 0,0 861.7,645.4 602.1,980.7" /><path
         id="path340"
         style="fill:#ffffff;fill-opacity:1;fill-rule:nonzero;stroke:none"
         d="m 12745,7536.8 c -0.3,0 -0.6,0 -0.8,0 -4.9,0.4 -8.8,4.2 -9.3,9 l -25.5,226.1 -48.2,-227.1 c -1,-4.7 -5.2,-8 -10,-8 h -90.1 c -3.9,0 -7.4,2.1 -9.1,5.6 l -23.9,47.7 -26.6,-48.1 c -1.8,-3.2 -5.2,-5.2 -8.9,-5.2 h -54.1 c -4.3,0 -8.2,2.7 -9.6,6.8 l -56.3,159.4 -69,-160.1 c -1.6,-3.7 -5.3,-6.1 -9.4,-6.1 h -259.6 c -5.6,0 -10.1,4.5 -10.1,10.1 0,5.6 4.5,10.2 10.1,10.2 h 253 l 76.6,177.8 c 1.7,3.8 5.6,6.2 9.7,6.1 4.2,-0.2 7.9,-2.8 9.3,-6.8 l 62.5,-177.1 h 40.9 l 33.1,59.7 c 1.9,3.3 5.6,5.4 9.1,5.2 3.8,-0.1 7.2,-2.2 8.9,-5.6 l 29.7,-59.3 h 75.6 l 59.6,280.4 c 1,4.9 5.3,8.4 10.4,8 5,-0.2 9.1,-4 9.6,-9 l 26.6,-236 25.6,93.4 c 1.3,4.5 5.3,7.5 10.2,7.4 4.7,-0.1 8.7,-3.5 9.6,-8.1 l 27.2,-136.1 h 106.9 l 84.3,256.2 c 1.4,4.5 5.8,7.4 10.3,7 4.7,-0.3 8.5,-3.8 9.3,-8.4 l 45.4,-254.8 h 32 l 44.1,91.6 c 1.8,3.8 5.8,6.1 10.1,5.7 4.3,-0.4 7.8,-3.4 8.9,-7.6 l 23.2,-89.7 h 147.2 c 5.6,0 10.2,-4.6 10.2,-10.2 0,-5.6 -4.6,-10.1 -10.2,-10.1 h -155 c -4.7,0 -8.7,3.1 -9.9,7.6 l -18.2,70.5 -34.9,-72.4 c -1.7,-3.5 -5.2,-5.7 -9.1,-5.7 h -46.9 c -4.9,0 -9.2,3.5 -10,8.3 l -39.8,223.6 -74,-224.9 c -1.3,-4.2 -5.2,-7 -9.6,-7 h -122.6 c -4.9,0 -9,3.4 -10,8.1 l -20.4,102.2 -28.3,-102.9 c -1.3,-4.4 -5.3,-7.4 -9.8,-7.4" /><path
         id="path342"
         style="fill:#dce5ff;fill-opacity:1;fill-rule:nonzero;stroke:none"
         d="M 13455.2,4724.6 H 12011 c -77.4,0 -140.7,63.3 -140.7,140.7 v 1576.3 c 0,77.4 63.3,140.7 140.7,140.7 h 1444.2 c 77.3,0 140.7,-63.3 140.7,-140.7 V 4865.3 c 0,-77.4 -63.4,-140.7 -140.7,-140.7" /><path
         id="path344"
         style="fill:#163560;fill-opacity:1;fill-rule:nonzero;stroke:none"
         d="m 12659.6,6008.5 c 21.5,-294.2 -92,-351.4 -205.6,-351.4 -113.6,0 -239.4,37.8 -205.6,351.4 20.8,192.9 92,351.3 205.6,351.3 113.6,0 191.5,-157.8 205.6,-351.3" /><path
         id="path346"
         style="fill:#163560;fill-opacity:1;fill-rule:nonzero;stroke:none"
         d="m 12641.4,5375 c 20.9,-159.8 -83.9,-187.4 -187.4,-187.4 -103.5,0 -211.2,15.1 -187.4,187.4 14.2,102.6 83.9,187.5 187.4,187.5 103.5,0 174,-84.8 187.4,-187.5" /><path
         id="path348"
         style="fill:#163560;fill-opacity:1;fill-rule:nonzero;stroke:none"
         d="m 13178.8,5767.9 c 21.4,-294.2 -92.1,-351.3 -205.6,-351.3 -113.6,0 -239.4,37.7 -205.6,351.3 20.7,192.9 92,351.3 205.6,351.3 113.5,0 191.5,-157.8 205.6,-351.3" /><path
         id="path350"
         style="fill:#163560;fill-opacity:1;fill-rule:nonzero;stroke:none"
         d="m 13160.6,5134.5 c 20.8,-159.8 -83.9,-187.4 -187.4,-187.4 -103.5,0 -211.2,15.1 -187.4,187.4 14.1,102.5 83.9,187.4 187.4,187.4 103.5,0 174,-84.8 187.4,-187.4" /><path
         id="path352"
         style="fill:#f77d48;fill-opacity:1;fill-rule:nonzero;stroke:none"
         d="m 11384.2,4667 h -1279.9 c -109.59,0 -199.27,89.7 -199.27,199.3 v 3432 c 0,109.6 89.68,199.3 199.27,199.3 h 1279.9 c 109.6,0 199.2,-89.7 199.2,-199.3 v -3432 c 0,-109.6 -89.6,-199.3 -199.2,-199.3" /><path
         id="path354"
         style="fill:#ffcbbb;fill-opacity:1;fill-rule:nonzero;stroke:none"
         d="m 10110.4,7333.5 v 63.8 l 151.3,200.3 c 7.8,10.2 13.9,20.7 18.2,31.6 4.3,10.8 6.4,21 6.4,30.7 v 0.6 c 0,14.8 -4.4,26.3 -13.3,34.5 -9,8.3 -21.6,12.4 -38.1,12.4 -15.6,0 -28.4,-4.9 -38.2,-14.8 -9.8,-9.8 -15.7,-23.8 -17.7,-42.1 v -0.3 h -74 v 0.3 c 4.2,39.9 17.7,70.9 40.6,92.8 22.8,22 52.4,33 88.7,33 40.1,0 71.2,-10.1 93.2,-30.1 22.1,-20.1 33.1,-48.3 33.1,-84.8 v -0.3 c 0,-17.7 -3.3,-35.6 -10,-53.9 -6.8,-18.2 -16,-35.2 -27.9,-50.8 l -117.3,-154 h 157.6 v -68.9 h -252.6" /><path
         id="path356"
         style="fill:#ffcbbb;fill-opacity:1;fill-rule:nonzero;stroke:none"
         d="m 10563.1,7397 c 19.8,0 34.1,5.9 42.8,17.6 8.7,11.7 13.1,27.8 13.1,48.3 v 178.6 c 0,20.7 -4.4,36.8 -13.1,48.4 -8.7,11.7 -23,17.5 -42.8,17.5 -19.9,0 -34.2,-5.8 -42.9,-17.5 -8.7,-11.6 -13.1,-27.7 -13.1,-48.4 v -178.6 c 0,-20.5 4.4,-36.6 13.1,-48.3 8.7,-11.7 23,-17.6 42.9,-17.6 z m 0,-68.9 c -42.6,0 -74.5,11.1 -95.8,33.4 -21.4,22.2 -32.1,52.5 -32.1,90.8 V 7652 c 0,38.7 10.8,69.1 32.4,91.2 21.5,22 53.3,33.1 95.5,33.1 42.3,0 74.1,-11 95.6,-33 21.4,-21.9 32.2,-52.4 32.2,-91.3 v -199.7 c 0,-38.7 -10.8,-69 -32.4,-91.1 -21.5,-22.1 -53.3,-33.1 -95.4,-33.1" /><path
         id="path358"
         style="fill:#ffcbbb;fill-opacity:1;fill-rule:nonzero;stroke:none"
         d="m 10766.1,7333.5 v 73.4 h 73.4 v -73.4 z m 0,238.8 v 73.4 h 73.4 v -73.4 h -73.4" /><path
         id="path360"
         style="fill:#ffcbbb;fill-opacity:1;fill-rule:nonzero;stroke:none"
         d="m 11026.2,7770.8 v -437.3 h -73.3 V 7686 l -56.3,-32.2 v 81.6 l 56.3,35.4 h 73.3" /><path
         id="path362"
         style="fill:#ffcbbb;fill-opacity:1;fill-rule:nonzero;stroke:none"
         d="m 11244.6,7328.1 c -34.1,0 -62.4,10.5 -85,31.4 -22.5,21 -35.9,50.6 -40.1,88.9 v 0.3 h 71.9 v -0.3 c 1.8,-16 7.4,-28.5 16.8,-37.4 9.4,-8.9 21.8,-13.4 37,-13.4 17,0 30.2,5.6 39.6,16.8 9.3,11.3 13.9,27.2 13.9,47.9 v 37.6 c 0,20.4 -4.4,36.2 -13.3,47.5 -9,11.2 -21.6,16.8 -37.8,16.8 -11.2,0 -21.4,-3 -30.5,-9 -9.2,-6 -16.3,-14.4 -21.5,-25.3 h -66.5 v 240.9 H 11358 V 7702 h -157 v -87.9 c 7,6.3 15.5,11.1 25.5,14.5 10.1,3.4 20.2,5.1 30.4,5.1 36.1,0 64.1,-11.7 83.9,-35 19.9,-23.4 29.8,-56.3 29.8,-98.8 v -37.6 c 0,-42.8 -11,-75.8 -32.9,-99.1 -22,-23.4 -53,-35.1 -93.1,-35.1" /><path
         id="path364"
         style="fill:#ffcbbb;fill-opacity:1;fill-rule:nonzero;stroke:none"
         d="m 10350.3,5346.4 h -275.5 v 164.2 h 275.5 v -164.2" /><path
         id="path366"
         style="fill:#ffcbbb;fill-opacity:1;fill-rule:nonzero;stroke:none"
         d="m 10350.3,5566.2 h -275.5 v 164.3 h 275.5 v -164.3" /><path
         id="path368"
         style="fill:#ffcbbb;fill-opacity:1;fill-rule:nonzero;stroke:none"
         d="m 10716.5,5346.4 h -275.4 v 164.2 h 275.4 v -164.2" /><path
         id="path370"
         style="fill:#ffcbbb;fill-opacity:1;fill-rule:nonzero;stroke:none"
         d="m 10716.5,5566.2 h -275.4 v 164.3 h 275.4 v -164.3" /><path
         id="path372"
         style="fill:#ffcbbb;fill-opacity:1;fill-rule:nonzero;stroke:none"
         d="m 10716.5,5786.2 h -275.4 v 164.2 h 275.4 v -164.2" /><path
         id="path374"
         style="fill:#ffcbbb;fill-opacity:1;fill-rule:nonzero;stroke:none"
         d="m 11073,5346.4 h -275.4 v 164.2 h 275.4 v -164.2" /><path
         id="path376"
         style="fill:#ffcbbb;fill-opacity:1;fill-rule:nonzero;stroke:none"
         d="m 11073,5566.2 h -275.4 v 164.3 h 275.4 v -164.3" /><path
         id="path378"
         style="fill:#ffcbbb;fill-opacity:1;fill-rule:nonzero;stroke:none"
         d="m 11413.6,5346.4 h -275.4 v 164.2 h 275.4 v -164.2" /><path
         id="path380"
         style="fill:#ffcbbb;fill-opacity:1;fill-rule:nonzero;stroke:none"
         d="m 10350.3,5123.1 h -275.5 v 164.2 h 275.5 v -164.2" /><path
         id="path382"
         style="fill:#ffcbbb;fill-opacity:1;fill-rule:nonzero;stroke:none"
         d="m 10716.5,5123.1 h -275.4 v 164.2 h 275.4 v -164.2" /><path
         id="path384"
         style="fill:#ffcbbb;fill-opacity:1;fill-rule:nonzero;stroke:none"
         d="m 11073,5123.1 h -275.4 v 164.2 h 275.4 v -164.2" /><path
         id="path386"
         style="fill:#ffcbbb;fill-opacity:1;fill-rule:nonzero;stroke:none"
         d="m 11413.6,5123.1 h -275.4 v 164.2 h 275.4 v -164.2" /><path
         id="path388"
         style="fill:#ffcbbb;fill-opacity:1;fill-rule:nonzero;stroke:none"
         d="m 10350.3,4899.8 h -275.5 V 5064 h 275.5 v -164.2" /><path
         id="path390"
         style="fill:#ffcbbb;fill-opacity:1;fill-rule:nonzero;stroke:none"
         d="m 10716.5,4899.8 h -275.4 V 5064 h 275.4 v -164.2" /><path
         id="path392"
         style="fill:#ffcbbb;fill-opacity:1;fill-rule:nonzero;stroke:none"
         d="m 11073,4899.8 h -275.4 V 5064 h 275.4 v -164.2" /><path
         id="path394"
         style="fill:#ffcbbb;fill-opacity:1;fill-rule:nonzero;stroke:none"
         d="m 11413.6,4899.8 h -275.4 V 5064 h 275.4 v -164.2" /><path
         id="path396"
         style="fill:#ffcbbb;fill-opacity:1;fill-rule:nonzero;stroke:none"
         d="m 11413.6,5566.2 h -275.4 v 164.3 h 275.4 v -164.3" /><path
         id="path398"
         style="fill:#ffcbbb;fill-opacity:1;fill-rule:nonzero;stroke:none"
         d="m 11413.6,5786.2 h -275.4 v 164.2 h 275.4 v -164.2" /><path
         id="path400"
         style="fill:#ffcbbb;fill-opacity:1;fill-rule:nonzero;stroke:none"
         d="m 11413.6,6006 h -275.4 v 164.3 h 275.4 V 6006" /><g
         transform="scale(1.18952)"
         id="g402"><path
           id="path404"
           style="fill:#f77d48;fill-opacity:1;fill-rule:nonzero;stroke:none"
           d="m 16156.7,10753.5 h -2040.6 c -79.1,0 -143.4,64.2 -143.4,143.4 v 630.4 c 0,79.1 64.3,143.3 143.4,143.3 h 2040.6 c 79.2,0 143.3,-64.2 143.3,-143.3 v -630.4 c 0,-79.2 -64.1,-143.4 -143.3,-143.4" /></g><g
         transform="scale(1.075)"
         id="g406"><path
           id="path408"
           style="fill:#ffcbbb;fill-opacity:1;fill-rule:nonzero;stroke:none"
           d="m 16007.7,12159.7 v 73.8 l 175.1,231.8 c 9,11.8 16,24 21,36.5 5,12.5 7.5,24.4 7.5,35.5 v 0.7 c 0,17.2 -5.2,30.5 -15.5,40 -10.3,9.6 -25,14.3 -44,14.3 -18.1,0 -32.8,-5.7 -44.3,-17.1 -11.3,-11.3 -18.1,-27.6 -20.4,-48.7 v -0.3 h -85.7 v 0.3 c 4.9,46.2 20.6,82 47,107.4 26.5,25.4 60.7,38.1 102.7,38.1 46.4,0 82.4,-11.6 107.9,-34.8 25.5,-23.2 38.3,-55.9 38.3,-98.1 v -0.4 c 0,-20.4 -3.9,-41.2 -11.7,-62.3 -7.7,-21.1 -18.5,-40.7 -32.2,-58.8 l -135.7,-178.2 h 182.3 v -79.7 h -292.3" /></g><g
         transform="scale(1.10002)"
         id="g410"><path
           id="path412"
           style="fill:#ffcbbb;fill-opacity:1;fill-rule:nonzero;stroke:none"
           d="m 16155.5,11954.8 c 22.4,0 38.5,6.7 48.4,19.9 9.8,13.3 14.8,31.5 14.8,54.6 v 202.1 c 0,23.3 -5,41.6 -14.8,54.7 -9.9,13.2 -26,19.7 -48.4,19.7 -22.5,0 -38.7,-6.5 -48.5,-19.7 -9.9,-13.1 -14.8,-31.4 -14.8,-54.7 v -202.1 c 0,-23.1 4.9,-41.3 14.8,-54.6 9.8,-13.2 26,-19.9 48.5,-19.9 z m 0,-77.9 c -48.1,0 -84.2,12.6 -108.4,37.8 -24.2,25.2 -36.2,59.4 -36.2,102.7 v 225.9 c 0,43.7 12.2,78.1 36.6,103 24.3,25 60.3,37.4 108,37.4 47.8,0 83.9,-12.4 108.1,-37.2 24.3,-24.8 36.4,-59.3 36.4,-103.2 v -225.9 c 0,-43.8 -12.2,-78.1 -36.5,-103.1 -24.4,-24.9 -60.4,-37.4 -108,-37.4" /></g><g
         transform="scale(1.11136)"
         id="g414"><path
           id="path416"
           style="fill:#ffcbbb;fill-opacity:1;fill-rule:nonzero;stroke:none"
           d="m 16217.9,11761.8 v 82.2 h 82.1 v -82.2 z m 0,267.3 v 82.2 h 82.1 v -82.2 h -82.1" /></g><g
         transform="scale(1.12562)"
         id="g418"><path
           id="path420"
           style="fill:#ffcbbb;fill-opacity:1;fill-rule:nonzero;stroke:none"
           d="m 16300,12096.2 v -483.4 h -81.1 v 389.6 l -62.2,-35.5 v 90 l 62.2,39.3 h 81.1" /></g><g
         transform="scale(1.1519)"
         id="g422"><path
           id="path424"
           style="fill:#ffcbbb;fill-opacity:1;fill-rule:nonzero;stroke:none"
           d="m 16163.9,11342 c -36.8,0 -67.4,11.3 -91.8,34 -24.3,22.6 -38.8,54.6 -43.3,96 v 0.3 h 77.6 v -0.3 c 2,-17.4 8,-30.8 18.2,-40.5 10.2,-9.6 23.5,-14.4 40,-14.4 18.4,0 32.6,6 42.7,18.2 10.1,12.1 15.1,29.3 15.1,51.6 v 40.6 c 0,22.1 -4.9,39.2 -14.5,51.3 -9.6,12.2 -23.2,18.2 -40.7,18.2 -12.2,0 -23.2,-3.2 -33,-9.7 -9.8,-6.5 -17.6,-15.6 -23.2,-27.3 h -71.8 v 260.2 h 247.2 v -74.4 h -169.6 v -94.9 c 7.6,6.8 16.8,11.9 27.6,15.6 10.9,3.7 21.8,5.6 32.8,5.6 39,0 69.2,-12.7 90.7,-37.9 21.4,-25.2 32.1,-60.8 32.1,-106.7 v -40.6 c 0,-46.1 -11.8,-81.8 -35.6,-107 -23.7,-25.3 -57.2,-37.9 -100.5,-37.9" /></g><g
         transform="scale(1.77735)"
         id="g426"><path
           id="path428"
           style="fill:#233862;fill-opacity:1;fill-rule:nonzero;stroke:none"
           d="M 16281.7,1050.83 H 1002.19 c -10.112,0 -18.382,8.28 -18.382,18.35 v 8.83 c 0,10.13 8.27,18.4 18.382,18.4 H 16281.7 c 10,0 18.3,-8.27 18.3,-18.4 v -8.83 c 0,-10.07 -8.3,-18.35 -18.3,-18.35" /></g><path
         id="path430"
         style="fill:#ed7d2b;fill-opacity:1;fill-rule:nonzero;stroke:none"
         d="m 10645.4,2541 v -372.3 c 0,0 -620,-26.4 -896.85,-26.4 -224.19,0 -896.8,30.8 -896.8,30.8 v 375.3 c 0,0 594.48,29.1 840.96,29.1 201.93,0 952.69,-36.5 952.69,-36.5" /><path
         id="path432"
         style="fill:#f99746;fill-opacity:1;fill-rule:nonzero;stroke:none"
         d="m 10645.4,2541 v -235.2 c 0,0 -620,-26.3 -896.85,-26.3 -224.19,0 -896.8,30.7 -896.8,30.7 v 238.2 c 0,0 594.48,29.1 840.96,29.1 201.93,0 952.69,-36.5 952.69,-36.5" /><path
         id="path434"
         style="fill:#d8681d;fill-opacity:1;fill-rule:nonzero;stroke:none"
         d="m 9066.39,2717.9 v -716 c 0,-29.4 -23.82,-53.2 -53.23,-53.2 h -322.83 c -29.41,0 -53.23,23.8 -53.23,53.2 v 716 c 0,29.4 23.82,53.3 53.23,53.3 h 322.83 c 29.41,0 53.23,-23.9 53.23,-53.3" /><path
         id="path436"
         style="fill:#ed7d2b;fill-opacity:1;fill-rule:nonzero;stroke:none"
         d="M 9066.39,2717.9 V 2497 H 8637.1 v 220.9 c 0,29.4 23.82,53.3 53.23,53.3 h 322.83 c 29.41,0 53.23,-23.9 53.23,-53.3" /><path
         id="path438"
         style="fill:#ef8535;fill-opacity:1;fill-rule:nonzero;stroke:none"
         d="M 9066.39,2497 V 2222.8 H 8637.1 V 2497 h 429.29" /><path
         id="path440"
         style="fill:#d8681d;fill-opacity:1;fill-rule:nonzero;stroke:none"
         d="m 10716.5,2717.9 v -716 c 0,-29.4 -23.8,-53.2 -53.2,-53.2 h -322.9 c -29.4,0 -53.2,23.8 -53.2,53.2 v 716 c 0,29.4 23.8,53.3 53.2,53.3 h 322.9 c 29.4,0 53.2,-23.9 53.2,-53.3" /><path
         id="path442"
         style="fill:#ed7d2b;fill-opacity:1;fill-rule:nonzero;stroke:none"
         d="M 10716.5,2717.9 V 2497 h -429.3 v 220.9 c 0,29.4 23.8,53.3 53.2,53.3 h 322.9 c 29.4,0 53.2,-23.9 53.2,-53.3" /><path
         id="path444"
         style="fill:#ef8535;fill-opacity:1;fill-rule:nonzero;stroke:none"
         d="m 10716.5,2497 v -274.2 h -429.3 V 2497 h 429.3" /></g></g></svg>