<?xml version="1.0" standalone="no"?>
<!DOCTYPE svg PUBLIC "-//W3C//DTD SVG 20010904//EN"
 "http://www.w3.org/TR/2001/REC-SVG-20010904/DTD/svg10.dtd">
<svg version="1.0" xmlns="http://www.w3.org/2000/svg"
 width="615.000000pt" height="912.000000pt" viewBox="0 0 615.000000 912.000000"
 preserveAspectRatio="xMidYMid meet">
<metadata>
Created by potrace 1.16, written by Peter Selinger 2001-2019
</metadata>
<g transform="translate(0.000000,912.000000) scale(0.100000,-0.100000)"
fill="#000000" stroke="none">
<path d="M2 8948 l3 -173 148 -85 c146 -85 147 -85 146 -120 0 -19 -1 -58 0
-86 l1 -50 55 -25 c30 -13 55 -27 55 -31 0 -5 7 -8 15 -8 8 0 15 -8 16 -17 0
-24 69 115 69 141 0 20 0 20 18 0 11 -10 87 -57 170 -104 l152 -85 0 -55 c0
-47 3 -57 23 -66 63 -31 157 -89 150 -91 -5 -2 -46 17 -91 41 l-82 44 0 -28
c0 -22 6 -29 28 -35 15 -3 41 -17 57 -29 17 -12 38 -26 49 -29 12 -5 16 -13
12 -25 -8 -22 37 31 72 85 15 24 31 43 35 43 11 0 107 -49 201 -103 l79 -46 0
-78 c0 -51 1 -60 4 -27 3 44 11 58 56 110 29 33 63 75 77 93 14 18 35 46 47
61 23 28 30 50 15 50 -5 0 -71 39 -148 86 -76 48 -154 95 -173 106 -36 21
-149 92 -212 134 -22 15 -43 22 -55 18 -15 -5 -16 -4 -4 5 12 8 11 11 -5 17
-11 4 -32 15 -46 26 -23 15 -28 16 -38 4 -10 -12 -8 -14 11 -10 21 5 21 4 5
-6 -15 -10 -24 -6 -53 24 l-34 35 35 -15 c52 -21 42 -10 -17 21 -29 15 -64 36
-78 47 -33 24 -213 144 -226 149 -5 2 -96 61 -202 132 l-192 127 -75 0 -75 0
2 -172z"/>
<path d="M252 9107 c9 -7 134 -86 278 -177 143 -91 372 -237 508 -324 136 -88
315 -202 397 -255 83 -53 159 -103 171 -111 20 -14 21 -27 27 -225 4 -115 7
-261 7 -323 0 -73 4 -111 10 -107 6 3 10 -4 10 -17 0 -13 5 -29 12 -36 9 -9 8
-12 -4 -12 -9 0 -19 8 -21 18 -3 9 -5 1 -6 -18 0 -23 2 -30 8 -21 7 11 11 10
19 -5 12 -22 19 -18 24 16 2 14 7 31 11 38 5 7 3 12 -3 12 -6 0 -9 4 -5 9 3 5
-6 18 -20 29 -29 23 -33 37 -6 23 10 -6 21 -7 25 -4 3 3 6 1 6 -5 0 -7 5 -12
10 -12 6 0 10 14 10 30 0 38 25 100 40 100 7 0 20 10 29 21 l18 22 71 -43 c69
-41 97 -63 50 -40 -13 7 14 -25 60 -69 78 -77 102 -94 102 -71 0 6 -4 10 -10
10 -5 0 -10 4 -10 8 0 4 9 8 20 8 11 0 20 -6 20 -13 0 -7 7 -13 15 -13 8 0 17
-11 21 -25 3 -14 14 -30 23 -36 14 -9 14 -10 -3 -5 -14 5 -17 2 -12 -10 3 -8
6 -18 6 -20 0 -2 4 -4 10 -4 5 0 33 -22 62 -50 29 -27 58 -50 65 -50 6 0 14
-8 17 -17 2 -10 4 14 3 54 -2 60 0 70 11 59 12 -12 20 -59 21 -125 1 -24 1
-24 15 -5 8 10 12 22 8 26 -4 4 -5 29 -3 55 3 36 6 43 12 28 4 -11 9 -33 10
-50 2 -27 3 -26 9 10 4 22 8 -138 10 -355 l3 -395 8 225 c4 124 9 254 11 289
l3 64 68 -66 c49 -48 69 -62 74 -52 3 8 12 15 20 15 11 0 13 -7 9 -24 -10 -39
21 -42 38 -3 l14 32 13 -35 c7 -19 12 -38 11 -42 -1 -5 2 -8 8 -8 5 0 10 -10
10 -21 0 -18 -2 -19 -15 -9 -13 11 -15 9 -15 -13 0 -14 7 -27 18 -31 9 -3 23
-9 30 -12 7 -3 12 1 12 10 0 9 5 16 10 16 6 0 10 -9 10 -20 0 -29 17 -24 25 7
5 21 2 32 -14 44 -16 13 -21 28 -20 61 0 33 2 38 9 23 5 -11 11 -32 14 -47 5
-21 12 -28 29 -28 23 0 54 -37 41 -48 -4 -4 -9 -1 -11 6 -8 22 -21 13 -34 -25
-9 -28 -9 -38 0 -41 6 -2 18 -20 26 -40 14 -33 16 -34 29 -17 11 15 14 16 22
4 6 -9 11 41 14 136 3 83 6 -75 5 -350 0 -438 -2 -500 -15 -500 -8 0 -18 -4
-22 -10 -11 -15 -84 -10 -158 12 -66 18 -94 34 -119 66 -12 16 -12 17 5 11 10
-4 24 -10 29 -14 6 -4 37 -13 70 -20 33 -7 65 -16 70 -20 11 -8 81 -23 74 -16
-2 2 -40 18 -84 36 -44 18 -89 36 -100 41 -11 5 -47 18 -80 30 -54 19 -118 45
-137 56 -4 2 -14 -10 -23 -26 -18 -36 -19 -49 -3 -33 7 7 16 12 22 12 5 0 1
-6 -9 -14 -11 -8 -24 -12 -30 -10 -11 4 -164 -223 -172 -257 -3 -10 -9 -19
-13 -19 -5 0 -32 -37 -61 -82 -29 -46 -59 -94 -68 -108 -15 -22 -15 -24 1 -18
10 4 19 1 22 -9 4 -8 13 -13 20 -10 12 5 32 -20 23 -29 -2 -2 -27 0 -56 5 -51
8 -52 8 -68 -23 -8 -17 -27 -46 -40 -64 -14 -18 -23 -36 -20 -39 3 -3 23 -5
44 -5 21 0 43 -4 50 -10 7 -5 17 -7 22 -4 14 9 101 -16 94 -27 -3 -5 0 -13 8
-17 10 -7 10 -11 0 -24 -7 -9 -10 -25 -6 -38 4 -16 3 -19 -3 -10 -5 8 -15 12
-23 11 -8 -2 -30 1 -49 6 -19 4 -44 9 -55 10 -11 1 -19 6 -18 11 1 5 -28 9
-64 9 l-66 0 -33 -50 c-34 -49 -84 -79 -84 -50 0 11 -7 12 -32 4 -18 -5 -34
-9 -36 -9 -1 0 -1 131 2 291 4 260 3 290 -11 285 -10 -4 -13 -2 -10 8 3 7 2
17 -3 22 -5 5 -6 22 -3 39 l6 30 13 -35 13 -35 -2 35 c-2 28 -7 36 -24 38 -19
3 -23 -2 -24 -25 -1 -17 -3 -21 -6 -10 -2 9 -9 17 -14 17 -5 0 -9 -143 -10
-352 0 -194 -2 -364 -3 -378 -1 -14 -3 -64 -4 -111 l-2 -86 -59 -89 c-82 -125
-353 -551 -522 -822 -35 -56 -81 -128 -101 -160 -20 -31 -46 -74 -58 -95 -13
-24 -25 -35 -33 -31 -7 4 -9 4 -5 -1 9 -9 -43 -104 -99 -178 -24 -31 -43 -61
-43 -65 0 -4 -15 -30 -32 -57 -18 -28 -42 -67 -53 -88 -11 -21 -37 -59 -57
-85 -21 -26 -43 -58 -48 -72 -22 -50 -94 -159 -102 -154 -4 3 -3 14 3 25 20
38 2 44 -22 7 -27 -43 -39 -46 -64 -18 -18 20 -18 21 2 43 11 12 23 29 27 37
4 8 -2 4 -13 -9 -12 -13 -21 -19 -21 -13 0 6 12 20 26 31 15 12 23 21 19 21
-5 0 1 10 12 22 50 57 179 261 179 283 0 6 14 14 30 19 56 17 59 20 17 24 -29
2 -43 8 -43 17 0 8 -7 18 -16 23 -13 7 -14 13 -5 30 14 27 14 35 -1 26 -7 -5
-19 -9 -28 -10 -29 -5 -135 -16 -145 -16 -5 0 -58 2 -117 4 -63 2 -112 8 -119
14 -21 22 3 55 74 102 92 60 104 76 113 140 5 42 10 52 25 52 15 0 19 -7 19
-36 0 -63 25 -99 89 -128 58 -26 92 -56 105 -91 7 -19 8 -19 21 4 7 14 11 31
8 38 -3 8 3 13 15 13 25 0 115 98 147 160 13 25 42 63 65 85 23 22 50 54 61
71 23 38 41 124 26 124 -6 0 2 14 18 30 24 25 36 30 77 30 41 0 47 -2 41 -17
-5 -14 -1 -13 16 4 11 12 21 24 21 27 0 3 -26 6 -57 8 l-57 3 45 51 c24 28 76
88 114 134 39 46 126 149 195 229 69 81 154 181 189 223 43 52 73 78 90 81 18
3 13 4 -14 6 -22 0 -109 8 -195 16 -85 8 -328 31 -540 50 -212 20 -448 42
-525 50 -77 8 -177 17 -223 21 l-82 7 0 -719 0 -720 43 -84 c24 -47 55 -106
70 -132 16 -27 23 -48 17 -50 -7 -2 -5 -11 5 -23 15 -17 16 -18 11 -2 -3 11
-2 16 4 12 6 -4 10 -12 9 -18 -2 -19 13 -57 20 -53 4 3 22 -26 41 -62 19 -37
45 -85 58 -106 18 -30 20 -37 8 -33 -9 4 -16 1 -16 -5 0 -7 -5 -6 -15 2 -8 7
-15 18 -15 24 0 6 4 4 10 -4 5 -8 12 -11 17 -7 4 4 2 16 -4 25 -7 9 -24 41
-39 70 -15 28 -31 52 -35 52 -5 0 -6 8 -2 18 3 9 2 14 -2 9 -5 -4 -29 24 -54
61 -79 119 -123 182 -127 182 -2 0 -4 -405 -4 -900 l0 -899 32 5 33 5 -33 -18
-32 -17 0 -943 0 -943 2824 0 c2439 0 2826 2 2836 15 15 18 5 35 -21 35 -11 0
-22 7 -25 15 -4 8 -11 12 -16 9 -5 -3 -23 9 -39 27 -26 31 -29 32 -34 14 -5
-16 -15 -21 -46 -21 -22 -1 -39 3 -39 10 -1 14 -62 54 -96 62 -13 3 -24 10
-24 15 0 12 6 11 40 -6 32 -16 41 -5 14 17 -8 7 -23 20 -33 29 -15 13 -21 14
-35 3 -10 -7 -17 -15 -16 -19 1 -4 -1 -9 -3 -11 -3 -3 -5 12 -5 33 0 20 -5 39
-11 41 -6 2 -11 10 -11 17 0 8 -7 11 -21 8 -19 -5 -20 -4 -8 14 10 17 9 24 -9
44 l-22 23 0 -23 c0 -20 -2 -21 -15 -11 -8 7 -22 10 -30 6 -9 -3 -15 0 -15 8
0 8 -6 17 -12 19 -10 4 -9 8 2 17 13 10 13 11 -2 6 -10 -3 -20 -1 -23 4 -3 5
-12 7 -20 3 -19 -7 -19 11 0 31 20 20 19 25 -5 19 -15 -4 -19 -1 -15 9 3 8 -1
21 -10 28 -19 16 -20 41 0 34 8 -4 17 1 21 9 3 8 16 18 29 21 17 4 23 11 19
24 -4 10 -3 13 3 6 11 -14 53 -25 53 -13 0 5 -5 9 -11 9 -7 0 -8 11 -4 30 4
19 3 30 -4 30 -6 0 -11 -7 -11 -15 0 -19 -26 -20 -33 -1 -4 10 -1 13 9 9 20
-7 18 4 -8 40 -19 27 -20 30 -4 24 22 -9 53 12 36 23 -13 8 -16 38 -5 64 7 16
5 18 -11 12 -14 -5 -16 -4 -8 4 9 9 17 9 32 1 30 -16 36 -14 17 6 -16 15 -16
18 -1 28 20 15 21 39 1 31 -8 -3 -15 -1 -15 3 0 5 7 11 15 15 10 3 15 19 15
46 0 27 4 39 11 35 6 -4 9 -1 7 7 -4 17 62 99 74 92 4 -3 5 2 2 11 -4 9 2 23
13 33 11 9 18 23 16 30 -3 6 1 12 9 12 7 0 30 24 51 53 21 28 62 72 92 97 29
25 56 51 60 59 11 27 35 1013 24 1033 -7 13 -21 18 -52 18 -23 0 -109 5 -192
12 l-150 12 -114 68 c-63 37 -119 68 -125 68 -6 1 5 15 25 33 l37 32 6 110 c3
61 6 237 6 392 l0 282 95 -6 94 -6 -8 29 -7 29 -184 8 c-164 7 -193 11 -284
38 -126 39 -127 40 -86 54 34 11 34 11 37 82 3 71 2 72 -25 77 -59 13 -355 45
-363 40 -5 -3 -9 -14 -9 -25 0 -10 -4 -19 -9 -19 -5 0 -9 121 -10 269 -2 250
-1 270 16 281 16 10 16 11 0 6 -15 -5 -17 2 -17 49 0 30 4 55 9 55 13 0 22 90
10 108 -8 14 -9 12 -5 -8 6 -30 -3 -70 -15 -70 -5 0 -7 10 -5 23 3 12 5 37 5
55 1 19 5 31 11 27 6 -4 11 11 12 37 5 102 3 158 -4 158 -4 0 -8 -31 -8 -70 0
-38 -3 -70 -7 -70 -13 0 -3 144 10 152 7 5 8 8 1 8 -6 0 -10 18 -10 40 0 27 5
40 14 40 9 0 12 11 10 38 -2 24 -8 36 -16 34 -8 -1 -11 2 -7 8 3 6 10 8 15 5
5 -3 9 29 9 70 0 46 -3 73 -9 70 -12 -7 -30 36 -30 71 0 26 26 62 32 44 2 -6
2 57 0 140 l-3 150 39 0 c44 0 54 -12 40 -50 -10 -26 -2 -97 12 -105 5 -3 7
-12 3 -20 -8 -23 5 -62 29 -85 18 -17 20 -23 10 -45 -7 -14 -12 -35 -12 -45 0
-16 -7 -20 -31 -20 -17 0 -39 5 -50 10 -16 9 -19 7 -19 -10 0 -12 4 -19 9 -15
6 3 13 -16 17 -41 5 -38 4 -48 -10 -56 -13 -7 -16 -25 -16 -88 0 -53 -4 -80
-12 -84 -10 -5 -10 -7 0 -12 6 -3 12 -18 12 -33 0 -45 24 -69 67 -65 60 4 117
7 133 5 12 -1 16 -24 18 -131 2 -82 -2 -146 -9 -171 -10 -33 -10 -42 0 -49 9
-5 9 -9 3 -11 -11 -4 -31 -216 -24 -238 2 -6 15 -11 29 -11 25 0 25 -2 21 -53
-2 -30 -14 -73 -26 -95 l-22 -42 80 0 c47 0 80 -4 80 -10 0 -5 16 -10 36 -10
25 0 35 4 31 13 -3 9 10 11 55 9 l59 -4 -3 100 c-3 90 -1 98 15 94 9 -2 17 0
17 6 0 6 -10 12 -22 14 -21 3 -21 4 4 9 15 4 25 3 23 -2 -3 -4 1 -9 7 -12 10
-3 10 -7 1 -19 -14 -16 -15 -88 -2 -88 5 0 8 -20 7 -45 -1 -53 0 -55 37 -58
l28 -2 -2 102 c-1 55 2 104 7 107 5 3 7 -5 5 -18 -3 -14 0 -32 6 -43 8 -14 10
-14 11 -3 0 15 56 57 81 60 8 2 53 2 102 1 l87 -1 39 -41 c22 -22 45 -57 52
-77 6 -20 18 -43 27 -50 15 -11 15 -14 -1 -30 -15 -14 -19 -15 -26 -3 -5 8
-11 9 -15 3 -3 -5 -51 -10 -108 -10 -78 -1 -105 -5 -117 -16 -10 -11 -11 -16
-3 -16 7 0 12 -4 12 -10 0 -5 -6 -10 -13 -10 -7 0 -22 -7 -33 -16 -18 -15 -18
-15 3 -5 40 20 50 14 59 -36 l8 -48 6 45 c4 25 5 50 3 56 -5 13 55 23 102 19
17 -2 36 -4 43 -4 6 -1 12 -8 12 -16 0 -8 7 -15 15 -15 8 0 15 7 15 16 0 8 4
13 9 10 5 -4 29 -7 53 -7 23 -1 49 -7 57 -13 11 -8 13 -8 7 1 -5 10 10 11 66
7 79 -6 85 -9 88 -39 5 -51 -1 -85 -15 -85 -9 0 -12 -6 -9 -15 5 -12 -6 -15
-65 -15 l-71 0 0 65 c0 62 -1 65 -27 71 -14 4 -34 2 -44 -4 -12 -8 -19 -8 -21
-1 -2 7 -12 7 -29 0 -18 -6 -30 -6 -37 1 -7 7 -19 6 -39 -5 -15 -8 -41 -21
-58 -28 l-30 -14 54 -3 c38 -2 58 1 70 12 10 9 21 13 25 9 4 -4 19 -7 34 -8
26 0 27 -2 27 -50 0 -47 -2 -50 -30 -56 -29 -6 -28 -7 10 -9 133 -8 310 -8
320 0 6 5 21 8 33 5 17 -3 22 1 22 17 0 14 -5 18 -15 14 -8 -3 -26 -1 -39 4
-21 8 -23 13 -19 54 6 51 -11 103 -36 111 -9 2 -43 7 -75 10 -87 7 -96 19 -96
127 l0 90 298 -6 c163 -3 330 -9 370 -12 60 -5 72 -4 72 9 0 12 -21 16 -112
21 -112 6 -547 19 -1015 32 -219 6 -269 12 -230 27 7 3 5 6 -5 6 -10 1 -18 8
-18 16 0 8 -4 15 -10 15 -5 0 -10 -7 -10 -15 0 -8 -4 -15 -10 -15 -5 0 -10 7
-10 15 0 8 -4 15 -8 15 -11 0 -9 -41 2 -59 6 -10 6 -12 -2 -7 -14 8 -14 6 -12
-89 1 -38 -1 -68 -4 -65 -4 5 -5 39 -6 215 0 265 -13 1041 -17 1045 -4 4 -19
-16 -26 -35 -2 -6 -11 -4 -21 4 -14 12 -16 12 -10 -3 3 -9 12 -16 20 -16 17 0
23 -60 11 -115 -2 -11 1 -27 6 -36 8 -13 6 -21 -6 -34 -10 -9 -15 -21 -11 -26
3 -6 1 -16 -6 -24 -6 -7 -10 -31 -7 -52 l4 -38 1 42 c1 23 7 45 13 49 9 5 10
-1 5 -20 -3 -14 -2 -35 4 -45 10 -20 -10 -48 -24 -34 -4 4 -6 -17 -5 -47 3
-65 -8 -119 -24 -122 -35 -4 -43 -4 -54 4 -13 11 -19 308 -5 308 5 0 9 13 10
30 0 20 -5 31 -19 35 -10 4 -19 13 -19 22 0 9 -6 13 -15 10 -8 -4 -17 -2 -20
3 -4 6 -2 10 3 10 18 0 0 58 -20 63 -16 5 -17 3 -7 -9 9 -11 9 -21 1 -39 -13
-29 -44 -34 -41 -7 1 9 -1 25 -6 35 -4 10 -5 35 -1 57 3 21 2 41 -2 44 -5 3
-8 -5 -8 -17 1 -13 -5 -22 -14 -22 -12 0 -15 14 -14 67 0 37 -2 67 -5 66 -19
-2 -24 4 -11 12 12 8 13 13 3 29 -11 17 -10 19 2 14 13 -4 15 2 9 38 -7 49
-29 73 -59 64 -54 -17 -65 -17 -65 -1 0 9 -4 16 -10 16 -13 0 -13 -37 0 -45 7
-4 8 -11 1 -18 -5 -7 -11 -23 -14 -37 -2 -14 -5 2 -6 36 0 35 4 65 11 72 7 7
8 12 4 12 -5 0 -4 6 2 13 7 7 9 29 6 49 l-6 35 -77 6 c-42 4 -137 10 -211 13
-134 7 -135 7 -118 -13 17 -19 17 -19 -12 -15 -24 3 -30 1 -30 -14 0 -15 2
-16 9 -5 8 12 13 12 34 -2 31 -20 43 -53 26 -73 -10 -12 -9 -17 5 -27 9 -7 17
-21 16 -32 -4 -154 -7 -184 -19 -198 -11 -15 -11 -17 2 -17 8 0 17 -6 20 -12
8 -23 -6 -143 -17 -151 -8 -6 -7 -10 2 -14 18 -7 16 -73 -3 -73 -8 0 -15 9
-15 21 0 11 -5 17 -10 14 -6 -4 -7 -11 -4 -17 4 -7 -14 -8 -57 -4 l-64 5 48
-12 47 -12 6 -160 c3 -88 9 -178 14 -199 9 -42 5 -60 -11 -51 -5 4 -5 -3 -1
-15 5 -12 4 -44 -2 -70 l-10 -49 -45 -4 c-25 -2 -10 -3 34 -3 l80 1 6 40 c3
22 7 34 8 27 0 -7 6 -10 11 -7 5 3 10 -1 10 -10 0 -9 -4 -13 -10 -10 -5 3 -10
0 -10 -9 0 -8 5 -16 12 -18 14 -5 21 -78 7 -78 -9 0 -13 21 -10 47 1 6 -4 15
-10 19 -9 5 -10 -3 -5 -30 4 -23 3 -36 -4 -36 -5 0 -10 -7 -10 -15 0 -8 4 -15
10 -15 5 0 8 -32 7 -75 -2 -72 -3 -75 -29 -81 -16 -3 -28 -10 -28 -15 0 -12
24 -11 37 2 7 7 12 4 16 -13 10 -42 3 -73 -15 -70 -9 1 -19 -2 -23 -8 -4 -6 4
-10 19 -10 14 0 28 -4 31 -10 3 -6 2 -10 -2 -10 -9 0 -14 -64 -13 -167 0 -36
-4 -53 -12 -55 -7 0 -17 -2 -23 -3 -5 -2 -17 -3 -25 -4 -10 -1 -11 -4 -4 -9 6
-4 16 -16 22 -27 11 -19 11 -19 12 3 0 12 5 22 11 22 7 0 10 -12 7 -30 -3 -17
0 -30 6 -30 6 0 5 -4 -3 -9 -12 -8 -12 -13 -3 -24 14 -17 7 -43 -14 -51 -9 -3
-12 -10 -9 -16 3 -6 -1 -13 -9 -16 -25 -9 -19 -43 9 -56 29 -13 31 -21 10 -38
-8 -7 -15 -22 -15 -34 0 -17 -2 -18 -10 -6 -9 13 -11 13 -20 0 -8 -12 -10 -12
-10 -1 0 8 8 20 18 27 15 12 15 13 1 14 -20 0 -33 -24 -34 -63 0 -15 -7 -32
-15 -37 -10 -7 -11 -10 -2 -10 13 0 16 -28 6 -54 -3 -9 -10 -13 -15 -10 -5 3
-9 1 -9 -5 0 -5 -10 -11 -22 -13 -13 -2 47 -2 132 0 136 3 165 6 233 29 l78
27 202 -13 c117 -8 216 -19 235 -26 l32 -14 0 60 c0 32 4 59 8 59 5 0 35 -9
67 -20 33 -11 82 -23 110 -26 l50 -6 -3 -462 c-1 -253 -5 -471 -7 -482 -6 -27
-33 -38 -51 -23 -17 14 -18 5 -4 -21 6 -11 29 -25 51 -31 l40 -13 -7 -262 -7
-263 31 -26 c27 -23 30 -30 21 -48 -9 -20 -9 -20 4 -4 8 9 17 17 21 17 3 0 5
-147 4 -327 -1 -181 -3 -304 -5 -275 -2 28 -8 52 -12 52 -5 0 -11 -27 -14 -61
-4 -36 -14 -67 -24 -77 -16 -16 -16 -16 -9 3 5 11 11 31 14 44 4 19 2 23 -12
18 -13 -5 -16 1 -17 41 0 26 -4 65 -8 87 l-9 40 -3 -50 c-2 -27 -2 -63 -2 -79
1 -19 -2 -25 -7 -16 -9 14 -7 256 2 265 3 4 6 0 5 -7 0 -7 1 -24 2 -38 1 -20
3 -22 11 -10 11 16 4 68 -12 87 -6 7 -3 24 6 48 20 47 40 37 31 -16 -4 -25 -3
-39 4 -39 7 0 11 22 11 55 0 48 -2 55 -20 55 -11 0 -20 7 -20 15 0 8 -4 15 -9
15 -11 0 -51 -66 -51 -86 0 -8 -4 -14 -10 -14 -5 0 -7 -8 -5 -17 3 -10 -1 -4
-9 12 -20 40 -20 52 5 86 11 16 17 29 14 29 -10 0 -35 -28 -35 -39 0 -17 -70
-12 -310 19 -41 5 -102 13 -135 17 -33 4 -52 9 -42 11 13 3 17 10 14 23 -6 21
17 26 43 9 12 -7 10 -11 -10 -19 -28 -11 -24 -12 60 -17 79 -5 215 -21 238
-28 13 -5 22 -3 22 3 0 6 -15 11 -33 11 -19 0 -37 3 -41 7 -8 8 -14 9 -78 12
-21 0 -38 5 -38 9 0 4 39 4 88 0 98 -8 153 -19 135 -25 -21 -8 -14 -26 7 -20
11 3 20 1 20 -4 0 -5 10 -9 23 -9 20 1 21 2 5 14 -10 7 -18 18 -18 25 0 6 -4
11 -10 11 -5 0 -7 7 -3 16 3 8 12 13 19 10 8 -3 11 0 7 10 -3 7 0 14 6 14 6 0
11 -4 11 -10 0 -5 5 -10 11 -10 8 0 8 4 -1 14 -9 12 -4 25 29 70 l41 55 -47
43 c-26 24 -58 53 -71 65 -12 13 -26 23 -30 23 -4 0 -22 14 -41 30 -31 29 -40
31 -199 49 -92 11 -171 17 -177 14 -5 -3 -2 2 7 12 15 16 19 17 35 4 16 -13
17 -12 4 4 -13 16 -10 17 58 11 l71 -7 0 125 c0 69 3 219 7 334 l6 210 51 12
c29 7 62 12 74 12 20 0 22 5 22 60 0 47 3 60 15 60 12 0 15 19 15 110 0 104 1
110 21 110 17 0 20 5 17 38 l-3 37 -135 12 c-74 6 -178 12 -230 13 -94 2 -96
3 -200 58 -58 30 -109 59 -114 63 -21 19 -36 9 -36 -24 0 -31 5 -35 113 -96
103 -59 118 -64 185 -69 l73 -5 -3 -95 -3 -95 -134 -74 c-74 -40 -137 -77
-140 -82 -7 -10 -236 -132 -293 -156 -22 -9 -38 -11 -38 -5 0 5 7 10 15 10 8
0 15 7 15 15 0 8 -5 15 -10 15 -6 0 -9 5 -8 12 2 6 -17 16 -42 21 -41 9 -43
11 -20 18 20 6 17 7 -20 9 -25 0 -67 5 -93 9 -26 4 -50 4 -53 -1 -3 -4 12 -8
33 -8 21 0 45 -5 53 -11 11 -7 -10 -8 -70 -3 -106 8 -147 22 -75 25 l50 2 -65
7 c-36 4 -114 12 -175 19 -144 15 -150 16 -163 46 -10 22 -9 25 8 25 11 0 20
-5 20 -12 0 -6 3 -8 6 -5 10 9 -17 38 -30 34 -18 -7 -48 13 -42 28 2 7 -2 19
-11 27 -14 11 -15 10 -9 -12 6 -19 1 -15 -20 14 -29 42 -30 37 23 74 15 10 11
11 -27 6 -79 -11 -90 -19 -90 -62 0 -32 9 -51 51 -103 28 -35 64 -83 80 -105
29 -43 68 -63 123 -65 l31 -1 -29 -8 c-18 -6 -37 -5 -50 1 -20 10 -20 10 -2
-5 21 -17 17 -19 -39 -30 -28 -5 -28 -5 -7 6 12 6 22 17 22 25 0 16 -5 16 -28
3 -21 -13 -190 -80 -200 -80 -11 0 48 38 101 66 26 14 45 29 42 34 -4 6 -14 6
-27 -1 -15 -8 -22 -8 -28 0 -5 9 -21 8 -61 -3 -107 -30 -107 -30 -85 -12 29
23 14 29 -30 12 -22 -8 -59 -20 -84 -27 -25 -6 -56 -19 -70 -29 -28 -19 -70
-32 -70 -21 0 4 18 14 40 21 23 7 39 18 37 24 -3 6 8 11 24 12 24 1 59 23 59
38 0 3 -18 -1 -39 -9 -33 -11 -42 -11 -58 0 -17 14 -17 14 2 15 12 0 38 9 60
20 22 11 45 20 53 20 7 0 20 7 28 15 19 18 11 19 -19 3 -12 -7 -38 -13 -57
-14 -38 -3 -122 -25 -130 -35 -10 -12 -82 -31 -101 -26 -11 3 -19 0 -19 -7 0
-10 -15 -12 -52 -9 -47 4 -51 3 -36 -10 10 -8 15 -17 11 -20 -10 -11 -63 -8
-63 3 0 6 5 10 10 10 6 0 10 4 10 9 0 5 -17 4 -40 -1 -22 -6 -40 -14 -40 -18
0 -4 -18 -10 -40 -14 -28 -4 -38 -10 -34 -20 4 -11 0 -13 -15 -9 -14 4 -21 1
-21 -10 0 -10 -14 -16 -45 -20 -45 -5 -63 -12 -53 -22 2 -3 19 0 37 6 56 20
44 3 -23 -31 -36 -19 -63 -37 -60 -41 2 -5 12 -5 21 -2 11 4 14 3 9 -5 -4 -7
-18 -12 -32 -12 -13 0 -24 -4 -24 -10 0 -15 18 -12 95 14 105 37 92 23 -28
-29 l-32 -14 30 -1 30 -1 -32 -16 c-56 -28 -36 -33 29 -7 73 28 90 30 81 8 -5
-14 -3 -15 18 -4 l24 11 -25 -20 c-30 -25 -20 -26 39 -5 67 23 58 12 -24 -30
-41 -20 -75 -41 -75 -45 0 -5 -18 -4 -41 2 -31 7 -43 7 -49 -3 -6 -9 -9 -9
-15 0 -4 6 1 18 11 27 13 10 9 9 -10 -2 -21 -13 -31 -14 -34 -7 -2 7 -10 12
-18 12 -8 0 -14 5 -14 10 0 7 -7 7 -21 0 -11 -6 -25 -9 -32 -6 -7 2 -3 5 8 5
14 1 16 4 7 13 -8 8 -15 8 -25 -1 -12 -9 -22 -6 -48 16 -19 15 -35 31 -37 35
-2 4 -9 5 -17 2 -7 -3 -16 -1 -20 5 -3 6 -1 11 5 11 6 0 17 6 25 13 11 11 10
15 -6 25 -11 7 -20 8 -24 2 -3 -6 1 -10 10 -10 29 0 5 -19 -33 -26 -31 -6 -34
-8 -17 -16 16 -7 15 -7 -5 -2 -62 15 -83 17 -76 5 5 -7 1 -9 -10 -4 -15 6 -15
7 2 20 10 8 39 20 63 26 37 10 48 20 73 62 58 100 110 180 126 197 16 15 256
97 291 99 10 0 11 2 4 6 -16 6 -17 73 -2 106 18 40 111 76 135 52 16 -16 19
-45 4 -45 -5 0 -10 6 -10 14 0 27 -19 27 -69 1 -49 -24 -50 -26 -39 -51 10
-22 10 -28 -5 -38 -24 -18 -2 -36 32 -27 14 4 37 4 51 -1 24 -7 24 -7 -3 -4
-19 2 -25 0 -18 -7 7 -7 24 -6 54 3 48 13 103 9 60 -5 -13 -4 -20 -11 -17 -16
3 -5 11 -6 17 -2 12 8 17 9 38 12 5 0 7 6 3 13 -4 7 -3 8 4 4 16 -9 393 46
467 68 l40 13 5 104 c3 57 9 110 14 118 6 10 6 12 -2 7 -9 -5 -13 67 -14 286
-1 161 -2 319 -3 352 0 55 2 59 28 68 26 10 38 28 17 28 -5 0 -10 -5 -10 -10
0 -7 -7 -7 -20 0 -20 11 -20 19 -18 281 l3 269 158 3 158 2 -6 -22 c-3 -14 -1
-23 6 -23 6 0 9 -9 6 -20 -3 -11 -1 -20 5 -20 6 0 8 -11 6 -25 -3 -14 -1 -28
4 -31 5 -3 4 -12 -3 -20 -9 -12 -9 -17 3 -27 17 -13 30 -67 17 -67 -10 0 -59
-45 -59 -54 0 -4 9 -2 20 4 16 8 18 8 14 -4 -4 -10 0 -13 13 -10 14 4 19 0 19
-18 0 -24 -30 -58 -53 -58 -19 0 -16 -18 7 -32 13 -9 20 -24 20 -45 0 -29 -3
-33 -25 -33 -14 0 -25 -4 -25 -9 0 -24 14 -41 34 -42 11 0 15 -3 9 -6 -19 -7
-16 -23 4 -23 15 0 15 -2 -2 -14 -20 -14 -29 -46 -14 -46 5 0 9 -4 9 -10 0 -5
-8 -10 -17 -10 -15 0 -14 -2 3 -15 11 -8 14 -15 7 -15 -23 0 -14 -20 15 -31
25 -10 26 -11 8 -21 -14 -8 -25 -7 -39 1 -10 7 -22 10 -25 6 -4 -3 0 -10 7
-14 15 -10 8 -76 -11 -98 -7 -9 -3 -15 16 -23 25 -9 37 -40 16 -40 -5 0 -10
-4 -10 -9 0 -5 9 -7 20 -4 38 10 20 -14 -20 -27 l-41 -14 28 -22 c15 -13 26
-24 23 -25 -3 0 -20 -2 -39 -2 -36 -2 -52 -25 -43 -59 4 -18 14 -18 75 -1 13
3 17 -2 17 -22 0 -22 -3 -25 -24 -19 -40 10 -66 -11 -67 -54 -1 -20 -3 -29 -6
-19 -3 11 -12 17 -24 15 -21 -3 -22 -24 -2 -22 7 1 10 -2 7 -7 -3 -5 4 -9 15
-9 14 0 21 -6 21 -19 0 -27 -17 -36 -37 -19 -15 11 -16 11 -10 -6 6 -15 4 -17
-13 -13 -11 3 -18 1 -14 -4 10 -17 -15 -9 -26 9 -9 14 -11 14 -7 1 3 -9 0 -22
-6 -28 -16 -16 7 -14 68 4 27 9 95 19 150 25 140 12 377 40 393 45 7 3 11 9 7
14 -3 6 3 14 12 20 10 6 12 11 6 11 -7 0 -13 5 -13 11 0 5 5 7 10 4 16 -10 40
15 40 42 0 13 -7 26 -15 29 -18 7 -20 51 -3 56 13 5 17 438 4 521 -7 46 -7 48
13 38 28 -16 31 -14 31 16 0 26 -1 26 -14 7 -13 -17 -15 -17 -21 -2 -4 9 -4
60 -1 115 8 131 8 642 1 654 -4 5 1 12 9 15 12 5 13 10 4 24 -6 10 -17 16 -24
13 -7 -2 -12 6 -11 22 0 21 2 23 14 13 13 -10 14 3 8 98 -3 60 -8 131 -10 157
-3 34 0 49 9 53 16 6 9 54 -10 61 -9 3 -11 15 -7 34 3 18 1 29 -6 29 -17 0
-14 -70 4 -76 8 -4 15 -14 14 -23 0 -10 -2 -11 -6 -3 -2 6 -11 12 -19 12 -10
0 -14 15 -14 59 0 56 1 59 23 56 l22 -4 -3 179 c-1 101 2 181 7 184 6 4 6 20
0 41 -6 20 -9 57 -7 83 3 47 3 47 48 58 l45 11 -4 193 -4 193 24 -7 c50 -14
92 -19 86 -10 -3 6 -2 16 2 23 7 10 13 11 30 2 12 -7 26 -9 31 -6 5 3 13 -2
17 -10 8 -13 15 -13 43 -4 45 15 64 33 56 54 -4 12 -13 15 -31 11 -14 -3 -37
-9 -51 -12 -19 -5 -25 -4 -20 5 4 6 18 11 32 11 39 0 27 20 -13 22 -21 1 -58
2 -81 3 -31 1 -39 -1 -28 -7 14 -8 14 -11 2 -24 -16 -15 -30 -19 -22 -5 3 5
-1 14 -9 21 -10 9 -15 9 -15 1 0 -15 -30 -14 -31 2 -1 6 -1 19 0 29 1 9 -3 19
-9 23 -6 4 -10 62 -10 154 0 146 0 148 24 159 13 6 40 14 59 17 33 7 34 6 40
-31 8 -46 5 -49 -25 -34 -19 9 -18 7 5 -10 26 -21 27 -25 27 -119 l0 -98 -31
-9 c-25 -7 -32 -15 -35 -37 -2 -25 -1 -26 14 -11 10 11 17 13 20 5 2 -6 22
-11 45 -11 23 0 65 -6 92 -14 l51 -13 -4 32 c-3 28 -10 34 -42 44 -20 6 -49
11 -62 11 -25 0 -26 2 -31 88 -8 116 -9 222 -3 222 4 0 119 24 398 82 10 2 14
-35 19 -185 3 -103 9 -190 12 -193 3 -4 3 81 0 188 -5 162 -4 196 8 200 8 3
87 20 177 39 l162 33 1 136 c1 157 -3 163 73 -115 40 -144 45 -173 48 -290 l3
-129 -80 -13 c-109 -18 -103 -14 -95 -70 4 -26 4 -56 -1 -65 -7 -14 -6 -18 6
-18 12 0 15 13 15 65 0 51 3 65 15 65 12 0 15 -13 15 -55 0 -37 4 -55 13 -55
8 0 7 -4 -3 -10 -12 -7 -8 -10 15 -10 23 0 26 3 15 10 -10 6 12 8 65 6 44 -2
100 0 125 5 25 5 158 24 295 43 138 19 315 46 395 60 302 53 452 76 459 71 5
-2 22 1 39 7 l32 12 0 1318 0 1318 -867 0 -867 0 -74 -37 c-72 -37 -74 -37
-88 -19 -14 19 -14 19 -14 -1 0 -12 5 -23 12 -25 7 -3 6 -7 -5 -11 -12 -4 -17
-1 -17 9 0 10 -6 14 -15 10 -10 -3 -15 1 -15 14 0 10 -4 22 -10 25 -6 4 -10
-5 -10 -19 0 -14 -4 -26 -9 -26 -5 0 -11 -9 -14 -20 -8 -32 -8 -35 4 -35 11 0
28 -50 99 -295 72 -251 111 -381 147 -500 34 -112 35 -120 40 -327 l6 -212
-89 -26 c-49 -14 -100 -30 -114 -35 -14 -5 -72 -23 -130 -41 -58 -17 -124 -37
-148 -45 -76 -25 -72 -36 -72 180 l0 194 38 15 c44 18 78 52 87 88 5 21 0 33
-24 60 -35 38 -33 49 5 25 26 -18 26 -17 19 6 -10 34 -40 56 -104 75 -88 25
-135 16 -212 -42 -23 -17 -25 -23 -17 -53 5 -18 8 -38 5 -45 -2 -6 5 -20 15
-32 9 -11 30 -35 45 -53 21 -25 39 -35 71 -39 23 -3 44 -9 47 -12 2 -4 5 -94
6 -201 l2 -193 -89 -28 c-49 -15 -154 -47 -234 -72 -80 -25 -264 -83 -408
-128 -150 -47 -267 -78 -270 -73 -4 5 -18 15 -32 22 -14 6 -65 39 -115 72 -49
33 -98 63 -107 66 -10 4 -15 11 -11 17 3 5 1 7 -5 3 -12 -7 -127 65 -159 101
-12 14 -27 22 -33 18 -6 -4 -21 3 -32 15 -11 12 -47 33 -79 47 -32 14 -56 29
-54 34 3 4 1 10 -5 14 -5 3 -10 1 -10 -5 0 -6 -15 -1 -32 12 -18 12 -37 23
-43 24 -5 0 -16 2 -23 2 -7 1 -10 7 -7 12 3 6 -3 10 -14 10 -12 0 -21 4 -21 9
0 5 -26 22 -57 37 -32 15 -61 31 -64 37 -4 5 -12 6 -19 2 -9 -6 -11 -4 -5 5 5
9 2 10 -13 6 -13 -4 -24 -2 -29 7 -12 21 -99 51 -120 42 -10 -5 -22 -7 -26 -6
-5 1 -6 -2 -3 -7 3 -5 -5 -19 -18 -31 -35 -33 -39 -10 -5 30 16 19 29 31 29
28 0 -4 37 32 83 79 82 85 82 85 297 189 394 192 637 304 657 303 4 -1 -3 -10
-16 -20 -13 -11 -17 -20 -10 -20 12 0 510 229 789 363 276 132 350 165 350
156 0 -5 9 0 20 11 11 11 24 20 30 20 15 0 13 12 -16 75 l-25 58 -30 -63 c-16
-35 -32 -60 -35 -57 -4 3 8 36 25 73 31 67 31 67 15 111 l-17 43 -1826 0
c-1438 -1 -1822 -3 -1809 -13z m4278 -1362 c23 -82 57 -202 75 -265 64 -219
73 -269 80 -431 l7 -155 -149 -33 c-81 -18 -158 -35 -170 -38 -23 -5 -23 -5
-23 116 0 90 3 121 13 122 6 0 4 4 -6 8 -17 6 -16 9 7 34 16 18 20 27 11 27
-8 0 -17 5 -21 12 -5 8 5 9 34 5 44 -5 55 5 23 23 -54 28 -186 -2 -197 -46
-12 -48 52 -97 101 -78 13 5 15 -9 17 -90 1 -53 2 -106 2 -118 1 -24 -21 -31
-244 -77 -58 -12 -85 -22 -85 -32 0 -16 -70 -37 -82 -25 -5 4 -8 152 -8 329
l0 321 140 41 c77 23 207 61 289 86 l149 44 -5 187 c-2 103 -3 187 -2 185 1
-1 21 -69 44 -152z m-640 -497 c0 -51 3 -191 7 -310 l6 -216 -39 -10 c-21 -6
-65 -16 -97 -22 -51 -10 -57 -14 -53 -33 3 -12 8 -200 11 -418 l7 -396 -44 -8
c-24 -5 -54 -8 -68 -8 -51 1 -150 16 -150 23 0 4 -14 7 -30 8 -17 0 -38 3 -48
6 -16 6 -74 15 -227 36 -100 14 -130 22 -137 35 -7 11 -90 31 -110 27 -3 -1
-9 17 -13 40 -6 34 -4 44 11 55 11 8 29 11 41 8 24 -6 59 4 46 14 -4 3 -7 232
-5 507 l2 502 98 -55 c53 -30 112 -63 130 -73 17 -11 32 -16 32 -12 0 4 -24
20 -53 35 -74 41 -166 101 -167 109 0 4 19 12 43 18 42 11 293 85 607 178 91
28 173 50 183 51 15 1 17 -10 17 -91z m-940 -1342 c0 4 8 0 18 -8 9 -8 47 -23
85 -33 67 -18 86 -38 47 -50 -11 -3 -20 -11 -20 -16 0 -12 7 -11 30 1 15 8 17
7 13 -11 -5 -18 -3 -20 16 -14 16 5 21 2 21 -13 0 -24 25 -46 41 -36 8 5 9 3
5 -5 -6 -9 -28 -11 -74 -7 -61 5 -64 5 -44 -10 13 -9 31 -13 42 -9 11 4 20 2
20 -4 0 -6 7 -11 16 -11 9 0 12 -5 8 -12 -4 -7 -3 -8 4 -4 21 13 40 -15 28
-40 -11 -23 -58 -40 -64 -23 -2 5 -11 9 -20 9 -31 -1 19 -30 52 -31 17 0 25
-3 19 -6 -17 -6 -16 -31 2 -49 21 -21 19 -32 -7 -36 -24 -3 -29 -25 -16 -65 8
-25 -6 -39 -34 -35 -9 2 -19 -1 -21 -5 -3 -5 6 -10 21 -11 15 -1 35 -11 44
-23 10 -12 24 -19 31 -16 7 3 13 -3 13 -13 0 -15 -4 -16 -18 -9 -14 7 -18 6
-18 -6 0 -8 -8 -15 -17 -16 -13 0 -14 -2 -4 -6 22 -9 51 -36 51 -49 0 -6 9
-14 20 -17 23 -6 17 -37 -6 -37 -11 0 -13 -7 -8 -27 4 -16 11 -29 15 -31 10
-4 -11 -52 -23 -52 -4 0 -8 7 -8 15 0 13 -4 14 -20 5 -12 -6 -29 -9 -38 -6
-26 9 -165 24 -219 25 -32 1 -33 3 -33 41 0 27 6 42 18 49 16 10 16 10 -1 11
-16 0 -18 7 -17 48 2 26 2 61 1 77 -1 26 -3 28 -12 12 -8 -13 -7 -23 2 -35 12
-15 11 -15 -3 -2 -23 22 -30 74 -12 96 14 18 15 18 9 -3 -3 -12 -1 -24 5 -28
7 -4 10 65 10 217 0 123 3 246 6 275 6 47 9 51 25 42 11 -5 19 -7 19 -3z
m-1053 -451 c-8 -19 11 -31 26 -16 8 8 8 11 -1 11 -7 0 -12 5 -12 11 0 5 4 8
9 4 6 -3 37 -6 70 -6 34 -1 61 -5 61 -11 0 -5 10 -7 23 -3 19 5 19 4 5 -5 -13
-8 -15 -17 -9 -33 17 -50 6 -58 -71 -52 -46 4 -75 2 -84 -6 -20 -16 -45 -4
-37 18 6 16 5 16 -10 4 -16 -13 -20 -11 -14 6 1 4 10 9 20 10 16 3 22 -8 18
-32 -1 -5 6 -2 16 8 16 15 16 19 3 27 -20 13 -8 13 24 0 22 -8 26 -7 26 8 0
10 -9 18 -22 19 -75 6 -88 9 -88 20 0 12 27 32 44 33 4 0 6 -7 3 -15z m1106
-517 c1 -82 5 -148 8 -148 13 0 27 27 43 81 9 31 22 59 29 62 7 3 13 29 15 68
2 35 6 67 10 70 4 3 32 1 62 -5 l55 -11 3 -158 c2 -102 -1 -163 -8 -172 -7 -9
-7 -27 1 -62 11 -48 10 -54 -20 -114 l-32 -64 25 -3 c36 -5 33 -22 -4 -22 -23
0 -30 -4 -30 -20 0 -16 -7 -20 -30 -20 -44 0 -45 1 -45 45 0 30 -4 40 -17 43
-14 3 -18 -3 -18 -25 l-1 -28 -14 34 c-19 43 -19 44 5 36 11 -3 20 -2 20 3 0
11 -100 102 -112 102 -4 0 -8 7 -8 15 0 8 7 15 16 15 9 0 12 -5 8 -11 -4 -7
-1 -10 6 -7 7 2 14 16 14 31 2 31 2 31 -25 17 -18 -10 -19 -5 -19 195 l0 206
30 -3 31 -3 2 -147z m-713 -242 l0 -304 -32 -5 c-18 -2 -42 -1 -54 3 -11 5
-35 7 -53 6 l-32 -2 3 72 c1 40 0 76 -4 79 -3 4 -4 17 -2 30 3 19 -2 28 -23
39 l-28 15 28 1 c26 0 27 2 27 50 0 28 -4 50 -9 50 -5 0 -7 10 -4 23 4 19 3
20 -7 5 -6 -10 -15 -18 -20 -18 -18 0 -10 28 15 58 14 17 25 41 25 55 0 13 3
45 6 70 5 36 11 47 29 51 13 3 31 9 42 12 15 6 16 4 6 -7 -18 -19 -16 -28 6
-22 12 3 17 11 14 22 -4 14 2 18 31 19 l36 1 0 -303z m-2134 206 c12 -9 36
-137 38 -209 0 -28 3 -51 6 -51 3 0 42 0 88 -1 66 -1 82 -4 82 -16 0 -8 -6
-15 -12 -16 -10 0 -10 -2 0 -6 8 -3 12 -26 12 -63 l0 -59 -82 -3 c-65 -2 -83
-6 -84 -18 -1 -8 -2 -27 -3 -42 -1 -27 -3 -28 -57 -28 -59 0 -69 19 -11 21 18
1 24 3 14 6 -12 3 -16 10 -12 24 4 13 2 19 -9 19 -9 0 -15 -3 -15 -7 3 -17 -1
-33 -8 -33 -5 0 -9 20 -10 45 -2 36 2 48 17 58 20 12 27 41 13 50 -5 2 -2 2 5
1 18 -5 16 70 -3 86 -8 7 -26 10 -40 8 -14 -3 -28 -1 -31 3 -3 5 -1 9 4 9 6 0
12 19 15 43 5 46 26 108 42 119 6 5 4 8 -5 9 -8 0 -4 5 10 9 17 5 19 8 8 9
-21 1 -23 12 -6 29 14 14 19 14 34 4z m1895 -99 c1 -54 1 -135 -1 -180 -1 -45
3 -91 9 -102 7 -13 8 -22 1 -26 -5 -3 -10 -31 -10 -61 l0 -54 -35 0 -35 0 -1
128 c0 70 -1 143 -1 162 -2 140 1 156 35 192 17 20 33 36 34 37 1 1 3 -43 4
-96z m359 45 c0 -18 3 -44 7 -57 5 -20 3 -23 -10 -18 -10 4 -17 2 -17 -4 0 -6
9 -13 20 -16 24 -6 26 -19 3 -27 -12 -5 -13 -10 -5 -18 8 -8 9 -15 1 -25 -9
-10 -5 -14 21 -19 27 -6 29 -9 15 -16 -9 -6 -26 -8 -37 -5 -18 5 -19 2 -13
-32 5 -32 3 -39 -17 -48 -36 -18 -66 -22 -70 -9 -2 6 -2 57 0 114 l3 103 30 6
c47 9 48 30 0 24 -7 -2 -10 2 -6 8 3 6 13 11 21 11 8 0 14 10 14 24 0 22 10
33 33 35 4 1 7 -14 7 -31z m-492 -160 c2 -40 7 -111 12 -158 6 -47 10 -100 10
-117 0 -32 -2 -33 -40 -33 l-40 0 0 184 c0 196 -1 190 45 195 7 1 12 -28 13
-71z m-1373 -100 c-1 -29 -2 -65 -3 -80 l-2 -28 -77 1 c-43 1 -68 4 -56 6 21
4 41 33 23 33 -6 0 -10 -4 -10 -10 0 -5 -7 -10 -16 -10 -12 0 -14 9 -12 43 3
41 4 42 41 45 20 2 37 8 37 14 0 6 -10 8 -24 4 -16 -4 -29 0 -41 14 -18 20
-17 20 61 20 l80 0 -1 -52z m172 -28 l-2 -80 -80 1 c-57 1 -70 4 -45 8 l35 7
-27 7 c-25 6 -28 12 -28 47 0 38 1 40 33 41 l32 1 -32 14 c-53 23 -39 34 41
34 l74 0 -1 -80z m153 0 l0 -80 -72 0 c-52 0 -69 3 -58 10 12 8 13 12 2 19 -8
5 -12 22 -10 42 3 31 6 34 43 40 31 5 34 6 12 8 -16 0 -35 7 -43 15 -12 13 -9
15 23 18 21 2 53 4 71 6 l32 3 0 -81z m3802 -67 c0 -76 2 -223 3 -328 2 -196
-2 -265 -15 -265 -13 0 -19 54 -7 62 9 6 8 11 -2 17 -11 7 -12 13 -3 23 14 18
10 284 -5 299 -8 8 -10 -6 -8 -45 2 -54 1 -56 -22 -56 -18 0 -24 -4 -19 -15 8
-23 -13 -18 -34 7 -13 17 -15 25 -7 30 9 6 8 8 -1 8 -7 0 -10 5 -7 10 4 6 11
8 16 5 5 -4 9 1 9 9 0 8 8 20 18 25 9 6 12 11 5 11 -6 0 -15 -5 -19 -11 -4 -7
-10 -7 -16 -1 -7 7 -3 18 11 33 11 13 21 33 21 45 0 30 16 39 23 13 4 -14 11
-20 21 -16 10 4 16 -2 20 -21 2 -15 3 46 2 136 -1 89 1 162 6 162 4 0 9 -62
10 -137z m-2295 17 c18 0 33 -4 33 -10 0 -5 -9 -10 -20 -10 -14 0 -20 -7 -20
-22 0 -20 1 -21 20 -3 19 18 20 17 20 -3 0 -14 -11 -27 -31 -37 -29 -15 -30
-18 -15 -34 14 -16 15 -20 2 -30 -8 -6 -16 -26 -18 -44 -3 -31 -2 -33 29 -34
17 -1 37 -4 42 -8 17 -10 3 -25 -25 -25 -13 0 -24 -4 -24 -10 0 -5 7 -10 15
-10 20 0 19 -6 -4 -29 -10 -10 -20 -24 -23 -31 -2 -8 -33 -14 -88 -16 -46 -3
-86 -7 -89 -9 -5 -5 76 -10 119 -7 19 1 22 -1 10 -8 -13 -8 -12 -10 3 -10 9 0
17 -4 17 -8 0 -4 -16 -6 -35 -4 -20 2 -35 0 -35 -6 0 -6 10 -8 23 -5 21 4 21
4 3 -11 -30 -25 -10 -31 34 -11 41 19 68 13 39 -8 -21 -16 -32 -67 -12 -60 18
7 17 -22 -3 -37 -12 -11 -15 -11 -12 0 2 8 -5 16 -14 18 -15 3 -18 -4 -18 -38
0 -37 3 -41 30 -46 32 -7 35 -11 21 -33 -5 -8 -19 -12 -35 -9 -14 3 -23 1 -20
-3 3 -5 -6 -9 -20 -9 -14 0 -26 -4 -26 -10 0 -5 -5 -10 -11 -10 -5 0 -7 6 -3
13 5 8 3 8 -9 -2 -22 -18 -11 -34 18 -27 13 3 27 1 30 -4 4 -6 11 -8 16 -5 11
7 12 -15 1 -31 -4 -6 -41 -17 -82 -23 -41 -7 -87 -15 -103 -18 -21 -4 -26 -2
-21 10 3 8 1 18 -5 22 -6 3 -11 -1 -11 -9 0 -9 -6 -16 -14 -16 -8 0 -24 -11
-37 -25 -13 -13 -31 -25 -39 -25 -13 0 -13 -2 -1 -9 10 -7 20 -3 32 14 19 23
59 40 59 24 0 -5 33 -8 72 -7 40 0 64 4 53 8 -25 9 -10 17 39 21 27 3 41 0 44
-10 3 -10 -1 -12 -16 -9 -25 7 -34 -17 -32 -86 2 -44 0 -48 -14 -37 -11 9 -16
10 -16 2 0 -6 -8 -11 -19 -11 -10 0 -24 -7 -31 -15 -10 -12 -10 -15 0 -15 7 0
10 -7 6 -16 -3 -9 -2 -12 5 -9 6 4 8 13 5 21 -3 8 -1 14 4 14 6 0 10 -5 10
-11 0 -8 4 -8 14 0 11 9 15 8 20 -4 3 -9 14 -15 23 -13 11 2 23 -6 31 -20 15
-31 15 -32 -3 -32 -21 0 -19 -18 3 -23 9 -3 1 -5 -18 -6 -26 0 -31 2 -20 9 13
8 12 11 -4 23 -11 8 -16 19 -12 26 4 6 -9 4 -29 -6 -30 -14 -38 -15 -45 -4 -6
11 -13 10 -34 -6 -14 -11 -22 -23 -19 -27 3 -3 -1 -6 -11 -6 -13 0 -16 5 -11
20 4 11 2 20 -4 20 -6 0 -11 -14 -11 -31 0 -31 1 -32 40 -26 22 3 43 1 46 -5
9 -14 -17 -29 -39 -22 -10 3 -19 -1 -23 -10 -4 -11 -19 -16 -46 -16 -35 0 -39
-2 -28 -15 7 -9 20 -13 30 -10 11 3 17 0 17 -11 0 -9 -9 -19 -19 -22 -11 -2
-17 -10 -14 -18 3 -7 -4 -16 -15 -19 -28 -9 -14 -23 18 -18 22 4 25 2 13 -6
-10 -7 -11 -11 -2 -11 7 0 12 -13 12 -30 0 -33 14 -40 24 -13 4 9 1 20 -6 24
-15 10 -11 13 27 27 l30 10 -34 1 c-35 1 -36 13 -1 18 11 1 34 10 52 18 l33
15 -44 -4 c-26 -3 -39 -1 -32 4 12 7 12 9 0 12 -8 3 -2 3 13 1 22 -4 27 -1 22
11 -3 9 -16 17 -28 17 -11 1 -3 5 19 11 65 15 77 14 86 -4 5 -10 13 -26 18
-35 5 -10 17 -17 27 -15 16 2 17 1 4 -7 -25 -17 -50 -12 -59 11 -5 14 -10 17
-15 10 -4 -6 -2 -21 4 -32 8 -15 8 -25 1 -34 -9 -11 -6 -13 14 -13 13 0 22 3
19 8 -6 11 -1 11 21 3 10 -4 13 -9 6 -13 -7 -5 -6 -16 4 -34 8 -15 9 -27 4
-27 -6 0 -7 -5 -3 -12 10 -15 16 -68 8 -68 -9 0 -34 28 -34 38 0 5 -7 15 -16
23 -13 10 -17 10 -24 -1 -5 -8 -6 -18 -3 -24 8 -13 8 -74 0 -83 -4 -3 -7 -15
-7 -25 0 -15 -5 -17 -27 -12 -27 7 -27 7 -7 -14 10 -11 30 -22 44 -24 23 -3
21 -6 -25 -33 -66 -40 -120 -56 -135 -41 -9 8 -11 6 -8 -9 3 -22 58 -36 58
-15 0 7 6 6 15 -4 8 -8 15 -19 15 -25 0 -15 -17 -14 -23 2 -3 6 -6 2 -6 -10
-1 -16 3 -21 14 -17 8 4 15 1 15 -5 0 -6 -5 -11 -11 -11 -5 0 -8 -4 -5 -9 4
-5 -2 -7 -13 -4 -13 3 -20 -2 -25 -20 -4 -19 -14 -26 -40 -29 -19 -2 -32 0
-30 4 3 4 -2 8 -10 8 -9 0 -16 5 -16 11 0 6 9 8 20 4 16 -5 20 -2 20 19 0 26
-15 36 -22 15 -2 -6 -9 1 -16 16 -7 16 -8 24 -2 20 13 -8 40 12 40 30 0 7 -9
15 -20 18 -15 4 -20 0 -20 -14 0 -13 -7 -19 -21 -19 -14 0 -18 -4 -12 -12 4
-7 6 -21 4 -32 -1 -10 2 -15 7 -12 6 4 13 2 17 -4 3 -6 -4 -14 -17 -19 -13 -6
-18 -10 -12 -10 6 -1 11 -8 11 -16 0 -8 -2 -13 -5 -11 -2 3 -16 0 -30 -5 -25
-10 -26 -10 -8 10 17 19 17 19 -6 14 -21 -6 -22 -5 -9 11 12 14 12 19 2 25
-13 8 -1 23 29 34 10 4 8 6 -7 6 -26 1 -21 31 6 31 9 0 23 5 31 11 11 8 3 9
-30 4 -25 -3 -49 -10 -55 -16 -5 -5 -17 -9 -27 -9 -10 0 -18 -7 -18 -15 0 -8
-3 -15 -6 -15 -7 0 -34 27 -34 33 0 5 52 20 75 22 28 2 53 17 49 30 -7 18 -42
26 -52 12 -13 -21 -36 -34 -69 -42 -30 -6 -33 -5 -31 18 2 19 7 23 22 19 11
-3 17 -1 13 5 -4 6 3 8 16 6 13 -3 28 1 34 9 15 19 22 70 12 89 -7 13 -3 18
16 23 14 4 25 11 25 17 0 6 -9 8 -22 3 -34 -10 -43 -17 -43 -34 0 -17 -36 -15
-46 2 -4 6 -14 -1 -24 -16 -10 -15 -15 -30 -11 -34 4 -3 11 0 16 8 5 7 16 15
24 16 9 1 13 -2 10 -8 -4 -6 -1 -14 6 -18 8 -5 10 -15 5 -26 -8 -18 -8 -18
-12 -1 -3 12 -10 16 -20 13 -8 -3 -18 -6 -23 -6 -5 0 -11 -8 -14 -17 -2 -10
-4 0 -4 22 0 22 -3 48 -7 58 -4 10 -3 29 3 43 7 15 8 24 2 24 -6 0 -10 7 -10
16 0 8 5 12 10 9 6 -3 10 1 10 9 0 9 -4 16 -10 16 -5 0 -10 8 -10 19 0 15 15
22 78 37 l77 19 -3 34 c-2 22 0 31 7 26 6 -3 11 0 11 8 0 16 -35 13 -45 -3 -8
-13 -45 1 -45 17 0 9 -6 13 -15 9 -10 -3 -15 1 -15 14 0 10 -5 22 -11 25 -6 5
-3 13 11 22 16 12 27 12 52 4 39 -14 68 -14 68 0 0 5 -4 8 -9 5 -5 -3 -14 1
-21 9 -11 13 -10 14 4 9 13 -5 16 0 16 24 0 27 -4 30 -36 34 -19 2 -37 1 -40
-3 -8 -14 -84 -8 -84 7 0 8 9 14 20 14 11 0 20 6 20 14 0 9 -7 12 -20 9 -20
-5 -21 -2 -18 113 1 66 -1 125 -5 132 -5 7 -2 14 7 18 19 7 21 24 4 24 -14 0
-17 107 -4 128 4 7 2 12 -3 12 -7 0 -11 24 -11 60 l0 60 38 1 37 2 -35 6 -35
6 -3 143 c-2 130 -1 142 15 143 16 1 16 2 1 6 -12 3 -17 18 -20 63 -4 79 13
87 70 32 8 -7 18 -10 23 -7 5 4 9 -12 9 -34 0 -37 -2 -41 -25 -41 -14 0 -25
-4 -25 -10 0 -5 6 -7 13 -5 20 7 82 -11 80 -23 -2 -6 6 -16 17 -22 16 -9 20
-8 21 7 0 12 2 14 6 4 3 -8 8 -9 12 -3 4 6 11 5 19 -4 11 -12 10 -14 -3 -14
-9 0 -14 -4 -11 -9 4 -5 0 -11 -6 -14 -7 -2 -9 -8 -5 -13 5 -5 13 -1 18 8 10
17 59 22 59 6 0 -4 8 -8 18 -8 10 0 23 -5 30 -12 9 -9 12 -7 12 9 0 12 -4 25
-10 28 -15 10 -12 35 5 35 8 0 16 -4 16 -10 1 -5 2 -15 3 -22 0 -6 10 -12 20
-14 10 -1 22 -8 26 -15 9 -13 23 -14 155 -5 83 5 86 4 45 -7 l-45 -11 39 -4
c21 -2 40 -1 43 2 10 10 11 56 2 62 -5 3 -9 10 -9 15 0 6 5 7 10 4 16 -10 24
24 9 41 -31 37 -27 156 5 124 5 -5 25 -10 43 -10z m1938 -2138 l-7 -293 -43 5
c-34 5 -45 2 -60 -14 -21 -23 -11 -28 11 -5 8 8 21 12 30 8 25 -9 1 -22 -51
-26 -23 -2 -77 -38 -120 -81 -16 -16 -21 -22 -9 -13 19 16 21 15 38 -1 17 -16
18 -16 11 5 -5 17 1 29 21 48 27 25 51 34 38 14 -4 -8 0 -9 15 -4 40 12 43 -7
4 -33 -21 -14 -42 -31 -46 -39 -4 -7 -17 -13 -28 -13 -11 0 -17 -4 -14 -10 3
-5 1 -10 -4 -10 -6 0 -11 -5 -11 -11 0 -5 3 -8 8 -6 4 3 16 -7 27 -22 15 -20
15 -23 2 -12 -9 7 -17 9 -17 4 0 -12 30 -39 50 -45 9 -3 10 -7 3 -11 -6 -4
-19 0 -28 9 -9 9 -18 14 -21 12 -6 -7 7 -38 16 -38 10 0 71 -58 92 -89 9 -13
22 -21 28 -19 7 2 -9 24 -36 51 -36 34 -46 49 -38 57 11 11 22 2 63 -58 8 -11
23 -23 33 -25 26 -7 22 -24 -8 -31 -23 -6 -35 2 -98 66 -39 40 -87 91 -106
113 l-35 40 37 -34 c21 -19 41 -31 45 -27 4 4 1 11 -6 15 -7 5 -11 13 -8 17
10 16 -21 47 -47 47 -14 0 -23 3 -20 8 3 5 -6 4 -20 -3 -14 -6 -26 -19 -26
-28 0 -12 -7 -17 -22 -16 -13 1 -29 -2 -35 -7 -7 -5 -20 -6 -29 -3 -9 3 -21 3
-27 -1 -7 -4 -19 -8 -27 -9 -29 -3 -60 -16 -60 -26 0 -5 -4 -7 -9 -3 -5 3 -17
-2 -26 -11 -9 -9 -19 -13 -23 -9 -4 3 1 12 11 20 16 11 14 12 -15 10 -18 -2
-35 -4 -38 -5 -8 -3 -63 1 -82 6 -15 5 -18 -1 -18 -35 0 -29 5 -41 18 -44 13
-4 12 -5 -5 -6 -12 0 -25 -6 -28 -11 -8 -13 4 -50 16 -50 6 0 7 9 4 20 -5 17
-1 21 24 26 17 4 31 10 31 15 0 5 9 9 20 9 11 0 20 -4 20 -9 0 -15 32 -22 46
-10 7 6 22 8 34 4 13 -4 22 -1 26 9 4 11 13 14 30 10 15 -4 44 2 75 15 27 12
54 19 59 16 5 -3 13 3 19 12 7 13 10 -67 11 -269 0 -186 -4 -288 -10 -288 -5
0 -10 7 -10 16 0 8 -5 12 -10 9 -6 -3 -13 0 -16 9 -3 8 -12 12 -21 9 -12 -5
-12 -7 -1 -14 8 -6 -2 -9 -29 -9 -24 0 -43 5 -43 10 0 6 -5 10 -11 10 -5 0 -7
-5 -4 -10 12 -19 -23 -22 -49 -4 -25 16 -26 16 -20 -1 6 -15 5 -16 -15 -4 -26
17 -26 24 0 43 20 14 20 16 5 31 -11 11 -21 13 -33 7 -12 -7 -22 -4 -37 9 -11
11 -28 17 -37 14 -10 -3 -20 -1 -24 5 -4 6 4 10 20 10 17 0 25 5 22 13 -2 6
-18 12 -35 12 -18 0 -32 4 -32 8 0 5 -7 15 -14 23 -13 12 -15 8 -19 -33 -2
-27 -4 128 -4 342 -1 215 2 410 6 435 5 25 9 39 10 32 1 -10 6 -9 18 4 11 11
16 29 14 51 -2 26 3 39 18 50 12 8 21 20 21 27 0 14 81 89 118 109 12 7 68 36
125 66 56 30 114 62 129 72 45 33 172 89 239 107 l64 17 3 -30 c2 -16 1 -162
-3 -323z m-1088 181 c-10 -20 -20 -49 -21 -63 -1 -8 -5 -21 -9 -28 -10 -14 0
-52 14 -52 5 0 9 -6 9 -12 0 -7 13 -14 29 -15 22 -2 39 8 69 37 22 21 43 49
45 62 3 13 4 3 3 -22 l-1 -45 -175 -92 c-96 -51 -181 -93 -189 -93 -11 0 -10
4 4 14 12 8 16 20 12 35 -3 15 1 24 14 31 10 6 16 16 14 23 -2 6 15 25 38 41
35 24 39 30 23 35 -16 6 -15 9 8 26 14 11 26 25 26 32 0 6 10 13 23 15 15 2
21 9 20 22 -1 11 8 27 20 37 24 20 30 23 24 12z m133 -823 c-5 -222 -13 -304
-14 -142 0 15 -5 21 -14 17 -7 -3 -15 -5 -16 -5 -2 0 -1 -11 2 -25 5 -29 3
-30 -34 -10 -32 16 -55 5 -36 -18 13 -15 6 -27 -15 -27 -7 0 -12 5 -11 11 2 6
-3 14 -9 16 -8 3 -13 -5 -13 -20 0 -14 5 -27 11 -29 5 -2 13 -22 16 -44 6 -46
-12 -63 -47 -44 -23 13 -31 2 -25 -39 2 -17 0 -31 -4 -31 -5 0 -23 -3 -40 -6
-20 -4 -31 -3 -31 5 0 6 9 11 20 11 11 0 20 5 20 10 0 6 -4 10 -10 10 -5 0
-10 8 -11 18 0 10 -3 12 -6 5 -2 -7 -12 -13 -20 -13 -13 0 -13 3 -3 15 10 12
10 18 -1 31 -12 15 -11 16 11 9 23 -7 24 -7 6 11 -10 10 -30 18 -45 18 -21 0
-26 -5 -26 -27 0 -14 -6 -32 -12 -38 -15 -15 -17 -39 -3 -39 6 0 10 4 10 9 0
5 9 11 20 14 13 3 20 0 20 -8 0 -7 3 -20 6 -29 9 -24 -52 -14 -75 13 -20 23
-36 15 -20 -9 5 -8 8 -26 8 -40 -1 -18 -3 -20 -6 -7 -4 14 -8 15 -18 7 -10 -8
-16 -4 -26 20 -17 37 -29 38 -30 3 -2 -26 -2 -26 -6 -4 -3 13 0 28 6 34 13 13
14 27 2 27 -5 0 -12 -11 -15 -25 -7 -27 -26 -34 -26 -10 0 8 -6 15 -14 15 -9
0 -12 -8 -8 -25 2 -15 0 -25 -7 -25 -6 0 -11 9 -11 19 0 11 -4 23 -10 26 -5 3
-10 17 -10 30 0 35 -10 55 -29 54 -10 0 -11 -2 -3 -6 13 -5 17 -45 5 -56 -3
-4 -13 -1 -21 6 -13 10 -14 8 -10 -15 3 -15 1 -25 -3 -22 -5 3 -9 -1 -10 -8 0
-7 -7 2 -15 20 -10 22 -21 32 -35 32 -12 0 -28 8 -35 18 -12 16 -13 16 -19 0
-10 -27 -23 -22 -27 10 -2 15 -7 26 -13 25 -11 -2 -34 34 -35 55 0 6 5 12 11
12 5 0 7 -6 4 -12 -4 -7 0 -5 8 5 8 9 22 17 31 17 9 0 16 5 16 10 0 6 12 10
28 10 30 0 54 12 51 26 -4 24 5 34 62 70 80 52 130 94 123 105 -3 5 1 6 9 4 7
-3 34 10 58 29 25 19 61 41 80 50 44 19 93 49 97 59 2 4 10 7 17 7 8 0 31 12
52 26 21 14 47 30 58 35 11 5 40 22 65 38 25 16 47 26 51 22 3 -3 2 -134 -1
-291z m2050 -131 l17 -92 -48 -49 -49 -49 -30 31 c-25 25 -30 27 -31 13 -1
-17 -2 -17 -6 0 -2 9 -11 17 -19 17 -15 0 -17 12 -8 48 4 12 12 22 19 22 8 0
16 8 19 18 3 9 18 31 32 47 14 17 38 45 52 63 13 18 27 30 30 27 3 -2 13 -46
22 -96z"/>
<path d="M300 8091 l0 -70 54 -25 c30 -14 57 -26 60 -26 3 0 6 26 8 58 l3 57
-41 26 c-89 57 -84 59 -84 -20z"/>
<path d="M306 6525 c-5 -11 -8 -32 -7 -46 2 -24 -1 -26 -25 -21 -33 6 -25 -14
12 -28 31 -12 32 -35 2 -26 -37 11 -43 12 -44 1 -1 -5 2 -9 6 -8 4 1 10 -16
12 -37 2 -22 0 -40 -4 -40 -5 0 -8 4 -8 10 0 5 -6 7 -13 4 -19 -7 -17 -145 2
-152 10 -3 11 2 6 19 -7 22 -5 21 21 -7 16 -18 41 -35 57 -38 l27 -6 1 82 c1
46 3 111 5 145 2 40 -1 62 -8 60 -6 -1 -13 4 -16 12 -3 10 0 12 12 8 12 -5 16
-1 16 16 0 23 -20 62 -20 40 0 -22 -18 -14 -22 10 -3 21 -3 21 -12 2z"/>
<path d="M859 6520 c-20 -15 -25 -26 -21 -45 2 -14 8 -25 13 -25 5 0 9 -8 9
-17 0 -10 9 -29 19 -42 10 -14 16 -31 13 -39 -3 -10 0 -13 9 -10 8 3 15 22 17
46 2 36 0 42 -17 42 -11 0 -23 5 -26 10 -4 7 3 9 22 5 21 -5 24 -4 13 4 -19
13 -9 14 24 1 23 -8 26 -15 26 -61 0 -41 3 -50 15 -46 8 4 17 2 20 -3 4 -6 -1
-10 -9 -10 -9 0 -16 -4 -16 -10 0 -5 7 -10 16 -10 8 0 13 -4 10 -9 -3 -5 0
-35 8 -68 8 -32 15 -54 15 -49 1 6 7 2 14 -8 8 -11 20 -16 28 -13 10 4 9 6 -3
6 -20 1 -24 16 -8 26 6 3 17 -1 26 -9 21 -22 21 -21 26 23 2 30 0 37 -11 33
-10 -4 -12 1 -6 16 7 23 -10 31 -18 10 -3 -7 -6 2 -6 20 -1 32 -1 32 23 16 14
-8 27 -23 29 -32 3 -11 5 -9 7 8 5 49 8 65 16 84 5 12 4 17 -3 13 -5 -3 -10 0
-10 8 0 8 4 15 8 15 3 0 9 11 11 25 3 13 1 22 -3 19 -5 -3 -9 -1 -9 4 0 5 -14
12 -31 16 -17 3 -28 10 -25 15 3 5 -6 16 -20 26 -31 20 -128 32 -138 17 -4 -6
-14 -8 -22 -5 -13 5 -13 7 -2 14 7 5 9 9 3 9 -5 -1 -22 -9 -36 -20z"/>
<path d="M6068 6403 c26 -10 11 -25 -20 -19 -18 3 -46 2 -63 -4 l-30 -9 35 2
35 2 3 -223 c1 -123 -1 -221 -6 -218 -5 3 -10 94 -11 202 -1 109 -4 201 -6
204 -3 5 -80 -1 -158 -14 -42 -6 -45 -48 -4 -61 18 -6 19 -8 6 -12 -11 -2 -15
-11 -12 -24 3 -11 0 -19 -7 -19 -9 0 -8 -6 3 -18 10 -10 14 -22 11 -25 -4 -4
-1 -13 6 -22 10 -12 10 -15 -5 -15 -13 0 -16 -6 -13 -24 3 -16 -2 -28 -13 -37
-13 -9 -17 -20 -12 -37 4 -18 1 -24 -17 -29 -17 -5 -20 -11 -15 -30 4 -16 1
-25 -10 -29 -20 -8 -9 -24 18 -25 20 -1 20 -2 -3 -9 -14 -4 -40 -8 -57 -9 -18
-1 -33 -5 -33 -10 0 -5 -10 -7 -22 -3 -13 3 -19 1 -15 -5 4 -6 -7 -16 -23 -23
-16 -7 -28 -16 -25 -20 6 -10 -14 -26 -40 -33 -18 -4 -18 -5 3 -6 22 -1 456
43 541 55 l44 7 -8 136 c-10 179 -10 246 -1 304 10 58 -7 101 -35 92 -9 -3
-20 -1 -24 5 -3 5 -12 10 -18 9 -9 0 -9 -2 1 -6z"/>
<path d="M394 6203 c1 -51 -2 -73 -10 -73 -29 0 -114 24 -114 32 0 5 -9 7 -19
3 -11 -3 -70 6 -131 20 -101 23 -134 26 -118 9 6 -5 135 -36 313 -74 50 -11
133 -29 185 -40 91 -20 238 -52 585 -125 88 -19 223 -48 300 -65 154 -33 155
-33 155 -22 0 6 -165 46 -242 59 -44 7 -409 91 -413 95 -2 2 -6 39 -9 82 -6
104 -18 112 -16 11 1 -44 1 -83 1 -86 -1 -9 -182 29 -197 41 -6 6 -15 26 -18
45 -11 56 -65 58 -66 3 0 -10 5 -18 10 -18 6 0 10 11 10 25 0 14 5 25 10 25
11 0 15 -7 24 -51 l6 -27 -69 14 c-134 25 -148 32 -160 78 -6 22 -13 57 -15
76 -2 19 -3 2 -2 -37z"/>
<path d="M4362 5973 c-2 -77 -4 -83 -24 -87 -79 -16 -78 -15 -78 -45 0 -25 5
-30 38 -38 23 -5 41 -17 47 -31 6 -14 19 -22 33 -22 20 0 23 4 20 27 -2 21 2
28 17 31 69 10 80 23 30 35 -19 4 -19 5 2 6 16 1 20 6 16 21 -4 16 -14 20 -44
20 -44 0 -47 5 -52 105 -3 51 -4 47 -5 -22z"/>
<path d="M7 5883 c-11 -10 -8 -53 3 -53 6 0 10 -5 10 -11 0 -5 -4 -7 -10 -4
-6 4 -10 -20 -10 -64 l0 -71 54 0 c30 0 58 -4 61 -10 3 -5 10 -10 16 -10 17 0
9 35 -16 72 -14 20 -25 43 -25 50 0 8 -13 19 -30 25 -37 14 -40 32 -4 25 21
-4 25 -2 19 9 -8 12 -6 12 8 0 15 -12 17 -11 17 8 0 11 -3 21 -7 22 -15 1 -41
7 -60 13 -11 3 -22 3 -26 -1z"/>
<path d="M200 5764 c0 -9 -11 -29 -25 -46 -14 -16 -25 -39 -25 -51 0 -21 4
-22 80 -21 44 1 83 -3 86 -7 3 -5 9 -9 15 -9 16 0 9 44 -11 70 -11 14 -20 33
-20 43 0 20 -8 24 -62 31 -30 5 -38 3 -38 -10z"/>
<path d="M5755 5734 c-170 -18 -425 -45 -565 -59 -140 -14 -275 -28 -299 -31
l-44 -6 7 -381 c3 -210 7 -543 7 -739 l1 -358 24 0 c13 0 24 -5 24 -10 0 -7
24 -10 63 -8 l62 3 3 50 c2 27 8 53 14 56 7 4 7 9 -1 13 -6 4 -11 3 -11 -2 0
-5 -20 -6 -47 -2 -25 4 -54 5 -65 2 -16 -4 -18 2 -18 54 0 40 -5 63 -17 77
-17 19 -17 20 0 14 15 -6 17 2 17 83 0 73 -3 90 -15 90 -21 0 -20 49 1 57 15
6 16 47 9 468 l-7 463 48 6 c27 4 164 18 304 31 140 14 318 32 395 40 77 8
208 22 290 30 228 24 215 20 215 60 0 35 0 35 -42 34 -24 -1 -182 -16 -353
-35z"/>
<path d="M400 5729 c0 -11 -9 -32 -20 -46 -11 -14 -20 -34 -20 -44 0 -17 9
-19 79 -19 44 0 82 -4 85 -8 6 -9 59 -7 75 3 6 3 9 11 6 16 -4 5 0 9 7 10 7 0
22 2 33 4 10 2 25 -1 32 -7 10 -8 13 -5 13 15 0 26 -16 37 -55 37 -13 0 -25
-7 -27 -17 -4 -13 -14 -18 -42 -17 -40 1 -65 24 -66 60 0 16 -8 23 -31 28 -55
11 -69 8 -69 -15z"/>
<path d="M1135 5540 c3 -5 17 -10 31 -10 13 0 24 -2 24 -5 0 -13 -25 -55 -33
-55 -5 0 -5 6 2 13 16 20 3 27 -26 14 -14 -6 -27 -22 -30 -39 -3 -15 -9 -25
-14 -22 -5 3 -8 -10 -8 -28 1 -23 3 -26 6 -10 3 17 11 22 34 22 17 0 28 4 25
9 -8 12 30 21 96 21 63 0 88 -7 88 -24 0 -7 28 -11 84 -11 l83 0 -10 30 c-5
17 -16 37 -24 45 -13 13 -15 13 -24 -3 -6 -9 -14 -15 -20 -12 -5 4 -9 1 -9 -4
0 -6 -4 -11 -10 -11 -14 0 -12 28 2 32 8 3 6 7 -5 11 -11 4 -26 -3 -41 -18
-31 -31 -31 -31 -34 0 -1 20 3 25 21 26 36 2 -54 18 -105 18 -27 1 -48 6 -48
11 0 6 -14 10 -31 10 -17 0 -28 -4 -24 -10z"/>
<path d="M1157 5246 c-9 -10 -18 -12 -22 -6 -4 6 -11 5 -19 -3 -19 -17 4 -25
69 -26 28 -1 77 -5 110 -10 33 -5 95 -12 138 -16 l77 -6 0 26 c0 15 -5 25 -12
24 -40 -5 -168 2 -164 9 3 5 0 9 -7 10 -151 14 -154 14 -170 -2z"/>
<path d="M5825 5034 c-126 -6 -241 -13 -254 -13 -13 -1 -22 -4 -18 -7 3 -4 48
-6 99 -6 99 1 140 -11 131 -35 -5 -13 0 -14 28 -8 44 10 48 14 25 31 -17 12
-18 14 -3 14 24 0 32 -4 30 -12 -2 -5 2 -8 8 -8 5 0 8 -4 5 -8 -11 -19 9 -30
28 -16 11 8 14 14 8 14 -7 0 -12 9 -12 20 0 17 7 20 44 20 40 0 45 -2 43 -22
0 -13 -6 -26 -12 -30 -5 -4 9 -8 33 -8 23 0 42 -4 42 -10 0 -5 7 -10 16 -10
10 0 14 -7 12 -22 -1 -13 2 -25 7 -28 6 -3 11 16 13 43 2 33 -1 47 -10 47 -9
0 -9 3 -2 8 6 4 14 19 18 35 6 25 4 27 -21 25 -16 0 -131 -7 -258 -14z"/>
<path d="M5767 4630 c3 -11 0 -20 -6 -20 -6 0 -11 8 -11 18 -1 16 -1 16 -11
-1 -6 -11 -13 -54 -16 -98 l-6 -79 26 0 c14 0 28 3 30 8 10 15 -6 62 -20 62
-8 0 -13 6 -10 13 2 6 15 12 28 12 16 0 27 8 34 23 8 20 16 23 48 20 33 -3 37
-1 37 19 0 28 -32 43 -90 43 -33 0 -37 -3 -33 -20z"/>
<path d="M5150 4440 c-8 -11 -26 -20 -39 -20 -24 0 -24 -1 -5 -14 18 -14 18
-14 0 -13 -10 1 -21 -3 -23 -8 -4 -14 16 -15 178 -8 126 5 136 7 132 23 -9 33
-40 53 -70 46 -15 -4 -37 -8 -48 -9 -11 -1 -26 -6 -34 -11 -10 -6 -16 -5 -19
2 -2 7 -10 12 -18 12 -8 0 -14 5 -14 10 0 17 -25 11 -40 -10z"/>
<path d="M5012 4383 c-11 -16 -23 -38 -26 -51 -4 -12 -12 -20 -17 -17 -5 4 -9
1 -9 -4 0 -6 -8 -11 -17 -11 -12 0 -8 -6 12 -16 19 -10 31 -11 33 -5 6 18 58
12 77 -9 14 -15 31 -20 69 -20 29 0 76 -7 106 -16 49 -14 219 -34 229 -27 2 1
-2 10 -10 19 -12 14 -9 20 25 49 25 21 35 35 27 39 -11 7 -285 1 -443 -10 -38
-2 -68 -1 -68 2 0 3 11 22 25 42 26 38 32 62 16 62 -5 0 -18 -12 -29 -27z"/>
<path d="M5800 4373 c-26 -5 -72 -33 -53 -33 7 0 10 -20 8 -56 -3 -63 19 -99
51 -87 15 6 14 7 -4 14 -31 12 -39 55 -17 95 13 25 26 34 56 39 43 7 76 0 102
-23 20 -17 23 -46 5 -37 -7 4 -5 0 6 -9 10 -8 16 -21 13 -29 -4 -10 1 -13 19
-9 13 2 22 9 21 14 -1 6 4 13 11 15 6 3 12 0 12 -6 0 -7 24 -11 60 -11 l60 0
0 35 c0 31 -3 35 -25 35 -20 0 -25 -5 -26 -27 0 -16 -3 -22 -6 -15 -2 6 -9 10
-14 6 -5 -3 -19 2 -31 10 -18 13 -19 16 -5 16 9 0 17 -4 17 -10 0 -5 5 -10 10
-10 6 0 10 8 10 17 0 9 -3 14 -6 11 -3 -4 -19 -2 -35 2 -27 8 -28 7 -19 -11 6
-10 15 -19 19 -19 5 0 11 -7 15 -15 4 -13 2 -13 -14 -5 -10 5 -25 8 -33 5 -9
-4 -17 7 -26 34 -6 22 -21 47 -34 56 -21 14 -90 18 -147 8z"/>
<path d="M5174 3609 c80 -12 86 -23 9 -16 -49 5 -63 4 -63 -7 0 -8 20 -19 48
-26 96 -25 140 -41 155 -58 12 -13 16 -42 16 -133 0 -116 0 -116 -34 -164 -19
-26 -36 -49 -37 -51 -2 -1 -45 3 -96 10 -72 10 -92 10 -92 1 0 -15 45 -25 110
-25 56 0 62 -4 48 -39 -5 -14 -13 -59 -17 -98 -6 -68 -6 -73 12 -73 16 0 18 5
13 34 -8 40 11 136 27 136 6 0 18 -7 28 -16 21 -19 85 -43 117 -44 32 0 17 20
-16 21 -24 2 -24 2 -4 6 16 3 22 11 22 30 0 19 4 24 16 19 9 -3 27 -6 40 -6
20 0 24 -5 24 -30 0 -20 5 -30 15 -30 11 0 15 12 15 49 l0 48 33 -6 c29 -6 32
-11 37 -51 6 -53 30 -67 31 -18 l0 33 16 -32 c10 -20 24 -33 35 -33 16 0 17 3
8 21 -15 27 -6 35 25 21 14 -6 25 -8 25 -3 0 14 -34 39 -61 46 -28 7 -39 25
-70 114 -24 67 -24 68 1 76 19 6 24 33 8 45 -10 8 29 90 55 118 18 19 28 22
63 16 25 -3 44 -2 48 5 8 12 98 3 107 -11 3 -5 40 -10 83 -11 l77 -2 25 -52
c14 -28 24 -61 22 -72 -2 -11 6 -27 17 -36 11 -9 15 -14 8 -11 -13 7 -26 -9
-30 -37 -5 -30 -40 -90 -79 -136 l-38 -43 -100 6 c-56 4 -109 10 -119 12 -16
5 -17 3 -5 -15 7 -12 21 -21 30 -21 10 0 18 -4 18 -9 0 -5 32 -8 70 -7 39 2
73 -1 76 -5 2 -4 -2 -25 -11 -45 -12 -29 -13 -39 -3 -45 8 -5 17 2 25 22 12
28 36 38 47 20 7 -11 135 -46 142 -38 3 3 -25 15 -63 26 -38 11 -77 27 -88 35
-18 14 -16 15 30 11 28 -2 67 -7 88 -10 36 -5 37 -4 37 26 l0 32 -71 -7 -72
-6 31 31 c17 17 45 59 63 93 18 33 36 63 41 64 12 5 10 82 -3 82 -6 0 -9 6 -6
13 2 6 -6 36 -19 65 l-23 52 30 0 c28 0 29 1 29 49 l0 48 -53 7 c-30 3 -72 12
-95 20 -39 14 -41 14 -44 -7 -3 -19 -9 -22 -43 -19 -22 1 -71 4 -110 7 -47 3
-62 1 -45 -4 14 -5 54 -10 90 -10 36 -1 72 -6 80 -11 10 -7 -16 -8 -76 -3 -64
4 -93 2 -98 -6 -10 -16 -36 -14 -36 4 0 18 -17 20 -22 3 -3 -7 -7 -6 -11 5 -4
11 -1 17 7 17 7 0 19 6 26 14 6 8 19 17 28 19 9 2 6 2 -8 0 -64 -12 -359 -14
-415 -3 -33 6 -94 13 -135 15 l-75 3 59 -9z m280 -159 c9 -65 26 -65 26 0 l0
50 85 -1 85 -1 -24 -31 c-14 -18 -28 -45 -31 -60 -5 -16 -17 -32 -31 -37 -25
-10 -72 -4 -91 11 -7 6 -17 8 -23 4 -13 -8 -40 53 -40 90 0 18 5 25 19 25 15
0 20 -10 25 -50z"/>
<path d="M5355 2928 c-3 -35 -5 -108 -3 -162 l3 -100 137 -70 c75 -39 140 -74
144 -79 4 -4 6 -75 5 -158 -1 -83 1 -149 6 -147 62 31 106 49 109 45 8 -8 34
-110 34 -132 0 -12 -12 -28 -30 -38 -27 -17 -32 -17 -46 -3 -8 9 -21 16 -29
16 -7 0 -20 3 -29 6 -14 5 -16 -4 -16 -60 0 -36 1 -66 3 -66 2 0 22 9 45 20
22 11 46 20 51 20 6 0 35 11 66 24 l55 25 0 263 c0 145 3 322 6 393 3 72 1
136 -4 142 -5 8 -66 19 -165 28 -146 14 -162 18 -243 55 -48 22 -88 40 -90 40
-1 0 -5 -28 -9 -62z"/>
</g>
</svg>
